<svg xmlns="http://www.w3.org/2000/svg" version="1.0" viewBox="0 0 425 400">
  <g fill="none" stroke="#eee" stroke-width="1" fill-rule="evenodd" stroke-linecap="round" stroke-linejoin="round">
    <path d="m97.219 15.406-2.375.938h-.938l-.469 1.437-1.874 1.157.468 1.437.469.469-.25 1.406.25 1.188.219 1.156-1.406.968-.72 1.407-.687.718 1.156.938.97.469-.97.687-.937.719-1.406 1.656 2.125.219.719.469v1.187l.468.719.469 1.188.219.218.719.938-.72.468.938 1.907-.687.937-.25.938v.937l-.688.25-.25-.25h-.719l.72 1.188.718.218.688 2.126.968.968.688.469.469 2.344v2.843l1.656 1.157 1.406.718 1.906.47.469-.25 1.188.5 1.406.218 2.812-.719 1.656-.468.72.25.937.718.469 1.407 1.187-.47 1.156-.718.5-.719.938-.687 1.875-.719.469-.938.718.47.938.468.719.469-.25.718-.22.47v.718l.688.219.938.468.719.938.218.969 1.188.687 1.187.25.719.219 1.156-.938v-.937l1.438-.469.469-1.875h-.72l-.468-1.187.469-.469.25-1.188.687-.937.469-1.656 1.188-4.25.468-.938L127.625 43l.938-1.188 1.656-.718 1.187-1.407.938.72 1.656-.47-.719-2.124.719-.938.219-1.188.25-2.124.219-.72h-.47l.25-.937V30.5l.688-1.188.25-1.156-1.187.219-2.594-.938-1.875.72-.719-.25-.469-.72-.25-.687-.687-.469-.469-.468-.719-.47-1.656.688-1.156.938-.25.968-.469-.25-1.406-.718-.719-.469-.719-.688-1.156-1.187L117 23.187h-.938l-1.406-1.875-2.125-.468h-.937l-3.063-1.907-1.187.25-1.406.22-1.188-.22-1.406-.718-2.844-.938-.469-1.187-1.406-.688h-.469l-.937-.25z"/>
    <path d="m135.406 28.156-.25 1.157-.687 1.187v1.406l-.25.938h.469l-.22.718-.25 2.126-.218 1.187-.719.938.719 2.124-1.656.47-.938-.72-1.187 1.407-1.656.718-.938 1.188 1.406 1.406-.469.938-1.187 4.25-.469 1.656-.687.938-.25 1.187-.469.469.469 1.187h.719l-.47 1.875-1.437.469v.938l-1.156.937-.719-.219.719 1.188.219.468h1.656l1.188 1.157.218 3.312.938-.25.969-.219 1.406 2.813 1.406-.469.719 1.188.469 1.187.468.219-.25.938-.219.968.688.938v.469l-.469.468-.469.719.25 1.875-.718.938v2.374l.25 1.407-.469 2.812 1.625 2.125.719-.219.469.938-1.875.719-.47 2.344-.937.718-1.187.688v1.187l-.469.719-.469 1.625-.469.969-.25 1.875-.937.719-.469.937-2.375-.25-.469.938-.218.718V101l.687.469.719 1.406h.719l.219 2.594h1.406l.969.219.687.718h1.406l1.188 1.406.25-.687.937.469.469.469 1.875.218 1.438.719h1.156l1.656.25 2.125.688h.25l-.25-.688.719.219.687.719 1.188.937 1.875.469.469.25v-.719l.718-.719v-1.156l-.719-.969-.687-.469-2.594-1.624.938-.97.25-.937h1.406l2.125-.219v-.718l1.406-2.125-.25-.219 1.438-1.656.469-1.656 1.406-.25 1.187-1.407 3.063-1.406v-.25l1.187-2.125v-4.688l.469-.718h1.406l-.25-1.875-.687-1.906.687-1.407.469.469.719.469.469.469 1.187-.22 1.188-.468h.468l1.156-.25 1.438.719.688-.719 1.906-2.813.687-1.187v-.938l1.906-.718.22-.938.25-.937V71.28l.937.25.469.688 1.656-.938.937-1.187 1.188-.469.687-.688.719-1.656.469-1.656 2.125-1.406.219-.719-.47-.469-1.405-1.187v-1.157l.937-.468.938-1.907-.47-.218-.687-.969-.469-.688v-.718l-.718-.688-.719-2.375-.219-1.187v-1.407l-.937-.468-.719-1.657-1.406-.218.219-1.188v-1.406L175 43.937l-1.875-.468-1.188-.938v-1.187l.47-.938v-.937l-1.876.218-.719-.687-.687-.25-1.438.719h-2.343l-1.656.687-.47-.218-1.187-.25-.687.468h-.969l-.469-.468-.937-1.157-1.406-.5-1.188.969h-1.406l-1.875.469-1.438.687-.937.719-1.188-.469-.937-.718-.688-1.157-1.437-.718v-1.188l-.219-.688v-1.906l-.938-1.406-1.187-.719-.469-.937-2.125-1.188-.719-.687-.468-.938-.469.219-3.531.719-.25-.469-.688-.469z"/>
    <path d="m116.063 52.188-.47.937-1.874.719-.938.687-.5.719-1.156.719-1.188.468-.468-1.406-.938-.718-.719-.25-1.656.468-2.812.719v.25l-1.188 2.594v2.593l-.719 1.876-.468 1.656-1.156 1.187.937 1.625-.938-.219-.718-.718-1.406 1.875v1.187l-.25 1.188.937.469.969.718-.5.219-.469 1.188-1.875 1.406-.719-.469-.937-.469-.219 1.188h-.719l-.25.219 1.906 4.03v1.626l.688 2.844 1.656 1.406.719 1.656-.719.719-.219.469 1.157.937.719 2.594-.47.937-.468.219-.25.719-1.406.469 1.187.937.688.25 1.187.469 1.188.25h.219l-.22-.25.22-.938.718-.937.719-.719 1.406.25.25.219H105l.688.937 1.187 1.188-.25.719-.688.218-.25.469-2.124.469h-.938l-.688-.469-.5.25.72.688 1.187.5-.719.937 2.594 1.406.469.719h.937l1.188.938 3.53.468 1.188 1.188 1.875 1.156 1.656-.938v-2.124l.25-1.157.22-1.187-1.657-1.188h-.469v-.937l-.219-.25-.25-.938v-.687l-.468-1.438-1.875-.219-.719-.718-.469-1.188h-.219l-1.437-2.344 1.438-1.187L109 86.125l.938-1.406h2.843l.688-.469 1.187-2.125L113 80h.469l.719-.938 1.406.25h.25l1.406-2.593 1.406-.469 2.125-.719.25-1.187-.25-1.188v-.687l.938-1.188.25-.719 1.656-.218v-.938l.938-.469.687-.718-.219-1.188.469-.469.469-.687.937-.719-.219-3.312-1.187-1.157h-1.656l-.219-.468-.719-1.188-1.187-.25-1.188-.687-.219-.969-.718-.938-.938-.468-.687-.219v-.719l.219-.468.25-.72-.72-.468-.937-.469-.719-.468zM208.469 74.344l-.688 1.406-.25 2.125-.219 1.188-.468 1.187h-.719l-.938-.25h-.718l-.688.719-1.187-.469-1.188.219L200 80l-.938.469-1.187 2.125L199.75 84l.469 2.375v.469l1.437 1.187.938 1.156 2.594 1.657.937 1.187.469 2.344-.469 1.906h.469l.25.469-.969 1.875.969 1.906-.469.688-.719 7.562 1.188.938H208l.25-.469.938-.25h2.125l.25.25 1.406-.719.469.719h2.125l.687-1.188h3.562l.938.22 1.156-.688h.969v-.469l.938-.719 1.406.469 1.187-.219.938-.719h.719l1.406-.718.937-.469.469.25.938-.25h.25l.937-.219.719-.25.469-.687 1.406-.25 1.875.937 2.125.25.25 1.156 1.187-.937.469.469.469-2.594.687-.688h.969l.688.22 1.406-.688v-1.438l.469.5h.968l1.406-.969-.468-.687-.938-.719h-.469l-.718-.469-.719-.468-.688-1.188-.718-.469-.938-.937-.25-1.406-.219-.469-.25-1.656-.468-1.188.25-2.344-1.906-1.187v-1.406l-.22-1.906-.937-.22-1.187.688h-1.656l-.938-.219-.938.22-.468-.22-.469-1.406-2.125-1.187-.469.469-1.187-.72-.469-.937-1.406-1.656-1.188-.219-.719.219-1.656-1.156-2.125.687-1.875-.469-.937.25-.719-.718-.938-.469-1.875.25-.718-1.656-.719.219-1.625 1.437-1.906-.5h-1.156l-.97-1.406zm36.094 2.125v.25l-.25.469v.468l-.688.469-1.188.938-.718 3.062.469.469 2.843 1.187 3.281-.25.25-.469-.25-.218-.468-.469-1.875-1.656-.469-.938.688-1.906h.5l-1.438-1.406h-.688z"/>
    <path d="m181.844 67.5-2.594 1.188-.719.25-.687.687-1.188.469-.937 1.187-1.656.938-.47-.688-.937-.25V74.594l-.25.937-.219.938-1.906.719v.937l-.687 1.188-1.906 2.812-.688.719-1.438-.719-1.156.25h-.469l-1.187.469-1.188.219-.468-.47-.719-.468-.469-.469-.687 1.406.687 1.907.25 1.875h-1.406l-.469.719v4.687l-1.187 2.125v.25l-3.063 1.406-1.187 1.406-1.406.25-.47 1.657-1.437 1.656.25.219-1.406 2.125v.719l-2.125.218h-1.406l-.25.938-.938.969 2.594 1.624.688.47.718.968v1.156l-.719.719v.719l-.218.219.937 1.906-2.125 1.406v.938l.469.937 2.125.938h.25l.219 2.843-.938.938-.219.719.688.218 1.656 1.188.719 1.187v.688l-.469.25v.469l-.25.937-.719.938h-.687l-.25.468h-.469v.719l-.219.938-.5.937v1.906h.97l.218.688-.219 1.437-.25.938.469 2.344v.937l.938-.219h.25l.468-.469.25-.25.469.25 1.406-.468.688 1.625.719.25.468-.25.469.5V142l1.656.469v.469l.469.468.25 1.656-.938.47.688 1.905-.469 1.657.25.469 1.406 2.125-.25.218.72.25 1.187.938-.469 1.406-.25.25v2.094l.469.5-1.406 4.687-.47.719.688-.219.969-.25 3.063-2.344.218.22.469-.22-.469-.718.469-.719.25-.219.219-.719-.219-.218h.469l.469-1.438.937-.937-.469-.469v-.219h.469l1.438.219.468.25h1.156l1.188-.469h.469l1.875-1.437-.469-1.406-.469-1.407.25-1.437h.219l-.219-1.406.469-.688-.469-.25.219-1.188V141.531l-.469-.219-.469.47h-.468l-1.656-.72-1.157-2.593.469-3.063.938-.937.687-.25.25-.219.719-.25.219-.688h.718l.469-.25.719-1.406-.719-.469-.25-.25v-.718h.25l.469-.219.25.219v-.219h.219l1.406-.719.969.469h1.156l2.375-1.156h1.656l.219.937 1.656 1.188 3.281-1.906 2.844-2.125 2.344-1.876.25-.718.719-.469V121.5l2.125-.719 2.593.25 1.406.469 2.125.719h1.875l-.25-1.906 1.657-3.063.25-.938.937-.937.469-.469 2.375-.937h.469l.937-.25 1.656-.25V113l1.157-.688-.469-2.124-2.125-.47h-1.156l-1.188-.937.719-7.562.469-.688-.969-1.906.969-1.875-.25-.469h-.469l.469-1.906-.469-2.344-.938-1.187-2.593-1.656-.938-1.157-1.437-1.187v-.469L199.75 84l-1.875-1.406-.938-.469-.937-.719h-.719l-.25.719.25.938-.719.937-.218 1.188-2.125.25-1.875.468-2.375-.719-1.875-.218-2.125-.25-1.906-.469-.47-.938h.47l-.47-.937.47-1.656-.688-.719.219-1.656-1.406-1.156-1.188-.25.719-1.188 2.344-.688 2.593-2.374-1.406-2.594-.219-1.625-1.187-.969zm-16.281 87.25-.47.219v.469l.47.718h.25l.25-.25V154.75h-.5zM357.938 79.063l-2.125 1.656-.688 1.875-.938.469-1.906-.47-2.125-.468-1.406-.938-.688.72-.25 1.406-2.593-.72-.719.938-.219 1.438-.719.937-.937-.25-1.188 1.438-.218-.25-.938 2.125h-.5l-1.156.219-.719.718-.719.25-.687-.719-.938-1.187-2.125-.219-1.906.219-1.875 1.438-1.875 1.156h-1.187l-1.188.719v2.343l-.687.25-1.438-.469.719 1.157.25 1.187v.469l.469 1.188.937.468.219 1.656V101l-1.156.219-.969-.219-.938-.25h-1.156l-.719-.469h-2.593l-.938-.469-1.656-.718v-.469l-1.406-.219-2.375.688-.219.937-.469.969-.969 1.406 1.657 1.656.937.688 1.656-.688.25-.468 1.407-.25 2.594 1.656-.22.469.47.469.468.25 1.156-.5v1.437l-.218 1.156 1.875-.219 1.406.22.719 1.437.469 2.344-.47.718v.469l.938.219v.719l.25.25.219-.72v-.25h1.656l-1.406-1.156.719-.25 2.344.25.468.938-.469.938-.25.937.5.469 1.407-.219.469.938.718-.938.219-1.406.25-.5 2.125.719 2.563 1.187-.22 2.125 1.188 1.625-.469.969.47 1.406.468 1.406v.25l.219.469 2.594-.469.718.469h1.875l.719-.469-.25.219v1.656l-.688 1.188.938.687 1.406-.219.25-.25.688-.687.469-1.656.25-.469 1.187.688.688.25-.22 1.656h.47l1.187.687.469.5v1.406l.219.47.25.218-.25.25-.938 1.188.719.687v.719l.687.719v2.593l.469 2.094h.719l1.187-.688.938-.25.469.25 1.656.22.937.25h.719l1.875-.47.938-.718 1.406-.688V134h.25l.25-.719h.687l.469.719h.469l.25.688.219.25.718.218 1.406.969h.25l.688 1.625h.719l.25-.469 1.156-.469 1.438-.218h.218l1.188-.469.469-.469.468-.5.719 1.438.938.219v2.125l2.125-.688.687 1.406 3.063-1.406.968-.25.469.25.469-.25.219-.25-.22-.219h-.25l-.218-.469-.25.22h-.469l-.469-.22-.937-.718-.25-.219v.219h-.469l.25.25-.25.219H380.125l.219-.938-.219-.719h-1.438l-.218-.937v-.469l-.25-.219-.469-1.437-.469-4.469-.25-4.469.25-1.437.719-1.875.688-1.875 1.187-1.656.469-.938 1.406-1.188.719-.468 1.187-.25h.469l.469.5.469.219.218.25v.218h-.219v.25h.22v.469h-.47v.219h.47v.25l.25.219v.25h.937l.469-.25.25.718.687.25.719.219-.219.25.938.469.468.469.219-.47.469-.468v-.25h.5l-.25-.469.25-.219-.25-.718.25-.469.937.688.219-.47.469.25.469.938.968.719.688.219.25-.219.219-.719-.22-.219h-.937l-.25-.25.25-.25v-.937l.219.25h.719l.687-.25h.969l.469-.219v-.469l.687-1.437-.219-.688-.25-.25-.218-.218-.469-.969.219-.219v-.25l-.219-.219v-.25l.469-.218.469.219.687.468.25.25v-.25h.469v-.469l-.25-.687h-.469l-.469-.469.25-.25.219-.469-.219-.25.219-.468h-.469l.25-.469.469-.219.219.219.5.25v-.469l.469-.469.468-.25v-.25l.688-.218-.219-.469.688.469-.22-.469.72-.25-.25-.219-.938-.719v.72l-.469-.47v-.468h-.25v.219l-1.406-.688-.25.219-.219-.219-.469.469v-.969h-.468l-.25-.219-.219-.25-1.656-.687h-.25v.469l-.219.218v.25h-.938v.469h-.25l-.468-.938-.469.22v-.47l-.469-.687v-.719l-.469-.25-.25-.219-.468-.25-.469.47h-.938l-.468.25-.25.468v-.219h-.719l-.469.688h.469v.25l-.219.469-.469.218-1.406-1.156.219-1.188v-.25h-.219v.25h-.25l-.25-.25.25-.218h-.469l-.25-.25h-.218l-.469-.469-.469-.219-.25-.469V96.031h-.219v.25l-.25.219h-.25v-.688l-.218-.718.719-.719.468-.688h-.25l-.469-.25-.937-.218.469-.719.937-.719-.219-.469h-.718l.719-1.156.218-.469.469-.25v-.718h-.219l.219-.688-.938-.469.25-.468h.688l.719-.5-.25-.219h-1.156l-.72.219H380.813l-2.125-.219-.687-.25-1.188.25-.718.938v.468l-1.406.25h-.47l-1.187-1.437-.469-.219-.468-.719-.719-.687-1.406-1.438-.469-1.406-.719-1.875h-.937l-1.156.469-.97.687-1.406-.687-1.406-.719-1.187 1.188-1.406.468-1.657-1.875-.719-.719zm40.78 30.187.25-.719h-.25l-.218.469.219.25zm-17.437 27.094v-.219l-.219.219h.22zm11.094-35.125v.25h.219l-.219-.25zm9.188 2.844.25.218v-.219h-.25zm1.406.468v.219-.219zM400.156 109h.219-.219z"/>
    <path d="m308.219 102.406-.5 1.406.5.938.469 1.906-.72 2.344 2.844.25 1.157.688-1.406.468-.938.469h-.938l-2.375-.469-.468-.687v-2.594l-1.188.469-1.625-.25.469 2.125-2.594 1.406-1.187-.688-.469.47-2.125-1.188-.25.719-.469-.25-1.156-.22-.969.688v.969l-2.094.688-1.437.937.25.469.469 1.187v.25l-.938.469-1.656.688-1.188.25-.687.468v.719l.219 1.156 1.406.469 1.188-.219.718-.25-.937 2.125h-.469l-1.188.469-2.375.25.72.719.937.687.25 1.188 1.406 1.187v2.594l1.188-.719v.719l.687.219.938.469v.468l-1.157-.219-.25.47-1.875.687-.469.969-.468.687.219 1.438 1.656 1.156.937.719.938.468-.688.938-.25.25.25 1.156.469.969h2.125l.219.219-.688 1.656.219.25v.219l.938 1.406.468.719v.468l1.188 1.188.719.219.687-.22 2.125-1.437.25-.687.719.219 1.156.468.469.5.25.938.719-.469h1.406l.687.938v.468l.719.938 1.188.937.687 1.188 1.906 1.875 1.156-.469.25-1.156.72-.969 1.156.25.968.719.938.469 1.156-.25.25-.938.719-.938v-.25l.687.72-.469.687.47.719 1.187 1.656.25.469 1.406.25.688 1.156.468.25.25-.719h.469l.938.469 1.437-.219-1.188-1.438-1.187-.937-.219-.938-.969-.218v-1.438l.72-.937v-.938l-.25-.469.25-1.187-.47-1.188V142l-.25-.938.47.25 1.187-.718.469-1.188.468-1.875h.469l-.219-.937 1.188-.938-.25-1.437-.719-.469.5-1.188-.5-.937v-1.156l1.188-.5v-2.563h1.656l.25.219-.719.469 3.063-.469h.468l1.875-1.875 1.656.688 2.594-.688 1.188-.469h.219l-.47-1.437v-.938l.47-.469.968-.937-.469-1.406.47-.969-1.188-1.625.219-2.125-2.563-1.188-2.125-.718-.25.5-.219 1.406-.719.938-.468-.938-1.406.219-.5-.469.25-.938.468-.937-.469-.938-2.343-.25-.719.25 1.406 1.157h-1.656v.25l-.219.719-.25-.25v-.72l-.937-.218v-.469l.469-.719-.47-2.343-.718-1.438-1.406-.219-1.875.22.219-1.157v-1.438l-1.157.5-.469-.25-.468-.468.219-.469-2.594-1.656-1.406.25-.25.469-1.657.687-.937-.688-1.656-1.656h-2.094zM128.813 64.688l-.97.218-.937.25-.937.719-.469.688-.469.468.219 1.188-.688.719-.937.468v.938l-1.656.219-.25.718-.938 1.188v.687l.25 1.188-.25 1.187-2.125.719-1.406.469-1.406 2.594h-.25l-1.406-.25-.72.937H113l1.656 2.125-1.187 2.125-.688.469h-2.844L109 86.125l1.188 2.125-1.438 1.188 1.438 2.343h.218l.469 1.188.719.719 1.875.218.469 1.438v.687l.25.938.218.25v.937h.469l1.656 1.188-.219 1.187-.25 1.156v2.126l-1.656.937-1.875-1.156-1.187-1.188-3.531-.469-1.188-.937h-.938l-.468-.719-2.594-1.406.719-.938-1.188-.5-.719-.687-.687.219-.25.469-.938.5-.468.218v.469l.469 1.406.937.25.719.25.719.219-1.438 1.406.25.719-1.406 1.656-.25 1.875-.469.938-.469 2.375-.25 2.125-.687.937-.469 1.656-1.438 1.626.25.968-.25 1.406-.687 1.188-.25 1.406-1.188 3.281.25.5 1.657.938-1.188.688-.937 1.187V131.156l.219.469.25.719-.25 1.406-.688 1.906-.719.938-.719 1.406-.468 1.656.469 1.406 1.656 1.407 2.125.937 3.312.25.219.719 1.438.938 1.406.218 3.312-.687.938.469 3.531.468 1.875.719 2.375-.25 1.875-.719v.25l.25.469.688.469 2.843 2.125 3.281-.25 1.188.5.938.219 3.53-.22h1.438l1.406-1.905.938.468 1.875-.469 2.844-.218.719 1.625v3.094l.937-.25 1.156-3.063-.469-1.188-1.406-1.656 1.188-1.156.469-.25.937-1.406.25-.938 1.156-2.125.969-.719.688-.937.468-1.406 1.188-1.906.469-.688.718.688.219-.22.469.22.469-1.157v-1.906l.5-.938.218-.937v-.719h.469l.25-.469h.688l.718-.937.25-.938v-.468l.469-.25v-.688l-.719-1.187-1.656-1.188-.688-.219.22-.718.937-.938-.219-2.844h-.25L146 117.25l-.469-.938v-.937l2.125-1.406-.937-1.906.219-.22-.47-.25-1.874-.468-1.188-.938-.687-.718-.719-.219.25.688H142l-2.125-.688-1.656-.25h-1.156l-1.438-.719-1.875-.219-.469-.468-.937-.469-.25.688-1.188-1.407H129.5l-.688-.719-.968-.218h-1.406l-.22-2.594h-.718l-.719-1.406-.687-.469v-.719l.219-.719.468-.937 2.375.25.469-.938.938-.718.25-1.875.468-.969.469-1.625.469-.719v-1.187l1.187-.688.938-.719.469-2.343 1.875-.719-.47-.938-.718.22-1.625-2.126.469-2.812-.25-1.406v-2.376l.719-.937-.25-1.875.468-.719.469-.469v-.468l-.688-.938.22-.969.25-.937-.47-.219-.468-1.187-.719-1.188-1.406.469-1.406-2.813zM102.874 92.5l-.719.719-.719.937-.218.938.219.25.968.687-.469.469.688.469h.938l2.124-.469.25-.469.688-.219.25-.718-1.188-1.188-.687-.937h-.469l-.25-.219-1.406-.25zM192.938 120.781l-2.125.719v1.875l-.72.469-.25.719-2.343 1.874-2.844 2.126-3.281 1.906-1.656-1.188-.219-.937h-1.656l-2.375 1.156h-1.156l-.97-.469-1.405.719h-.22v.219l-.25-.219-.468.219h-.25v.719l.25.25.719.468-.719 1.406-.469.25h-.719l-.218.688-.719.25-.25.219-.688.25-.937.937-.469 3.063 1.156 2.594 1.657.718h.469l.468-.469.469.22v3.531l-.219 1.187.469.25-.469.688.219 1.406h-.219l-.25 1.437.469 1.406.469 1.407-1.875 1.437h-.469l-1.188.469h-1.156l-.469-.25-1.437-.219h-.469v.219l.469.469-.938.937-.468 1.438h-.469l.219.219-.219.718-.25.219-.469.719.469.719v.468l1.906.469.469.938-.469 1.656-1.656 2.344 1.656-.47.219.938.719 1.188v2.594l.469.718.25-.25.937-.719.469-.687v-.469l.687-.719.969.47.688-2.345 1.406-.718h.719l.468-.219.719-.25L175 167h.25l.688-.25 2.593 1.906-.469 1.406 1.657-.468.719 1.406 2.125.719 1.406-2.375.937-.938 1.875.719.25 1.656V173.844l-.25.469.469 1.875-.938 1.656-.937 1.187-1.656.938 1.906 1.406.469.938 1.875-.688v.219l-2.344 1.406-1.906 1.438-.469.468-.219 1.875v.938l-.25.719-.937.468.719.719h.468l.219-.25.469-.219.719.469v-.469l.468-.5-.25-1.406.25-.469-.25-.219 2.375.47.719 2.124v.469h.938l.468.688.469.468.719.25-.5.938.25.719h.469l-.22-.72h1.407l.688-2.124 1.187-.219v-.969l.469.25.937-.469.25-.25.938.97 1.406-.25-.219-.47.938-1.406-.469-.969.219-.218h-.469v-.469l-.469-.719.469-1.187 2.125-1.156.469-1.907-.469-.937 1.656-.469.719-.938-.469-.468.469-1.406-.469-1.438v-.219l-.969-1.906-1.406-.469-.687-.219-1.438 1.188-.687.469-1.656-1.188.937-1.406.938-.469v.688h.25l1.656-2.344.469.219 1.406-.469.719-1.156 1.156-1.188.937-1.187h.5l.688.25.469-.25-1.157-2.125.688-.469v-.719l-.469-.469.469-.687v-.25l-.219-1.188.688-2.093.25-.25.468.25.219-.5.719-.469 1.187.469-.937 1.656.469.469 1.156.25 1.437-.719v-.219l1.406-.719 1.657-1.187-.469-.938v-.687l.219-.719-1.156-.469v-.468l-.97-1.188h-.468l-.469 1.406 1.188 1.907-.469.219-.25 1.187-.219-.25-.25-.688-.469-.468-.937-.25-1.188.25-.687.219v-1.407l-.719-.469-.25.47.25.25-.719.937v-.719l-.468-.469.469-.719v-1.156l.468-1.187.469-.469h.719l-.219 1.406.219.469-.469.719.469.469.719-.72-.25-.937.718-.937.688-.469.969-.719h.937l.219-.469-.469-.718.25-.469-.25-.938-.469-.468-.687-.469-.5.938-.219.718-.719-.469v-.718l.25-.938.219-1.187 1.656-2.344v-1.188l.25-.937 2.125.719.938-.5.687-.688v-1.406l-1.406-.25-.688-.719.47-.469.218-1.156.25-.5-.469-.469-1.187-.937v-.688l1.875-3.312.937.469 1.438-1.406.469-.72-.25-1.187.25-.937-.47-.688-.25-.25-.718 1.406.25.97-1.406.468-.938.688-.469-.938-.718-.469-1.188-.719h-.469l.25.72-.25.468-.218-1.188-.5.97-.469-.72-.469.22v1.187h-.469l-.218-.219h-.469l-.969-.719.469-.25-.469-.937-1.156-2.344.219-.719-1.656-.219h-.47l-.937-.718-.469.25h-1.875l-2.125-.719-1.406-.469-2.594-.25zm15.312 15.094 1.875.469-.469.937.25.25-3.531-.25-1.656-.937-.25-.219 3.781-.25zm-42.688 18.875h.5v1.156l-.25.25h-.25l-.468-.719v-.468l.469-.219zm45.75 15.781.47.938h-.47l.938.469.25.718.938-1.656-.72-.469-.468.719-.469-.719h-.469z"/>
    <path d="m235.594 103.344-1.406.25-.47.687-.718.25-.938.219h-.25l-.937.25-.469-.25-.937.469-1.406.719h-.72l-.937.718-1.187.219-1.406-.469-.938.719v.469h-.969l-1.156.687-.938-.219h-3.562l-.688 1.188h-2.125l-.468-.719-1.406.719-.25-.25h-2.125l-.938.25-.25.469 2.125.469.469 2.124-1.156.688v.469l-1.657.25-.937.25h-.469l-2.375.937-.469.469-.937.938-.25.937-1.656 3.063.25 1.906.468-.25.938.719h.469l1.656.218-.219.719 1.156 2.344.469.937-.469.25.969.719h.469l.219.219h.468v-1.188l.469-.219.469.72.5-.97.219 1.188.25-.469-.25-.719h.468l1.188.72.719.468.468.938.938-.688 1.406-.469-.25-.969.719-1.406.25.25.469.688-.25.937.25 1.188-.47.719-1.437 1.406-.937-.469-1.875 3.313v.687l1.187.938.469.468-.25.5-.219 1.156-.469.47.688.718 1.406.25v1.406l-.687.688-.938.5-2.125-.719-.25.938V142.25L208 144.594l-.219 1.187-.25.938v.719l.719.468.219-.719.5-.937.687.469.469.469.25.937-.25.469.469.719-.219.468h-.938l-.968.719-.688.469-.719.937.25.938-.718.719-.469-.47.469-.718-.219-.469.219-1.406h-.719l-.469.469-.469 1.187v1.156l-.468.72.469.468v.719l.718-.938-.25-.25.25-.469.719.47v1.405l.688-.218 1.187-.25.938.25.468.469.25.687.219.25.25-1.188.469-.218-1.188-1.906.469-1.407h.469l.969 1.188v.469l1.156.468-.219.719v.688l.469.937-1.656 1.188-1.407.718v.219l-1.437.719-1.156-.25-.47-.469.938-1.656-1.187-.469-.719.469-.219.5-.469-.25-.25.25-.687 2.094.219 1.187v.25l1.187-.719 1.188.469.687 1.656.469.25-.219.688 1.188.719 1.875-.25 1.656-.47v.25l.469 1.657 1.156.469.5.469-.5.937 1.188.219h1.406l.25-.688.719.938.468-.25.219.719 2.375-.938h1.656l1.156-.938 1.657 1.157.719.5.468.687.938.719-.25.938.719.218v-1.875l.25-.687 1.625-.25 2.125 1.656h.468l-.219-.938.47-1.437-.47-.938.47-1.656 1.405-.219-.218-.468.937-.469 2.125-1.188 1.656-1.875h2.344l1.656 7.282h1.657l.219-.688-1.657-1.906.469-.469.5-2.344 1.875-.937-1.188-1.438 1.407-1.156-.219-1.187.219-.938h.25l.937-.719-.219-.687.22-1.188.937-1.656.719-1.406v-.469l-1.188-.25h-1.406l.219-.469-.22-.468.72-.719.468-2.125.219-3.063-.219-1.625.938-1.656 1.187-.25v.469l.938 2.375 1.156-.469-.469-1.187.25-.469 1.406-.469.47 1.188.468-1.906-1.875-.688.938-.719-.47-2.125h1.657l.719-.719.219-.687-.47-.719h-.718l-.219-.219-.719-.718-.468-.469-.938.219-.719-.938-.937-.687-2.594.469v-.72l-.219-.468-1.187-2.344-.25-.719.25-.718h-1.406l-1.656.25v-3.063l.937.219 1.656.469h2.344l-1.188.469.5.968.22.469-.938 1.656.937.938.25.469 1.875-.25.719-.688.219-.969.719-.687.937.687h1.656l.469-.937-.25-1.406.469-.47-.688-.25-.719-.218-.218-2.375.219-.688.25-.718-1.188-.219-1.188.469-.468.469-.688-1.657-.719-.937.938-.719.25-.688.219-1.656v-.25l.937-1.187.719-1.406.938-.938.25-.469 1.656-.937.469-.938-.72-.25-.937-.469-1.187-.718-.938-.688-1.656-.719h-1.406l-1.188.25-1.187.938h-1.156l-3.063-1.906-.469-.469-1.187.938-.25-1.157-2.125-.25-1.875-.937zm12.969 30.406.718.25.688.469v.219l-1.406.718v1.188l-.25.687-.22.25-.718.219-.219-.219v-.469l-.469-1.406v-.719l1.625-.25.25-.218.22-.469-.22-.25zm-40.313 2.125-3.781.25.25.219 1.656.937 3.531.25-.25-.25.469-.937-1.875-.469zM338.156 121.5l-.969.938-.468.468v.938l.469 1.437h-.22l-1.187.469-2.594.688-1.656-.688-1.875 1.875h-.469l-3.062.469.719-.469-.25-.219h-1.656v2.563l-1.188.5v1.156l.5.938-.5 1.187.719.469.25 1.437-1.188.938.219.937h-.469l-.469 1.875-.468 1.188-1.188.719h.25l1.875.468h2.844l.719.219.937-1.406h2.344l1.188.469.937.468v.938l1.875.937 1.188.25 1.406 2.344h1.187l.25.25-.25.719.25 1.156 2.344 1.906.25-.469.219-.468h1.656l2.125-.719-.469-1.656 1.875-.219v-.969l.25-.469.469-.687.469-.469-.25-.969 1.187.47.25.25.469.937.688-.219.468-.469.25.219-.25.469.25.25.719-.25.469-.938V142l.219-.688-.47-.968 1.407-1.875v-.719l-.469-2.094v-2.594l-.687-.718v-.719l-.719-.688.938-1.187.25-.25-.25-.219-.22-.469v-1.406l-.468-.5-1.188-.687h-.468l.219-1.656-.688-.25-1.188-.688-.25.469-.468 1.656-.688.688-.25.25-1.406.218-.938-.687.688-1.188v-1.656l.25-.219-.719.469h-1.875l-.719-.469-2.593.469-.219-.469v-.25l-.469-1.406zM146.938 133.531l-.47 1.156-.468-.218-.219.219-.719-.688-.468.688-1.188 1.906-.469 1.406-.687.938-.969.718-1.156 2.125-.25.938-.938 1.406-.468.25-1.188 1.156 1.406 1.656.47 1.188-1.157 3.063-.938.25v-3.094l-.718-1.625-2.844.219-1.875.468-.938-.469-1.406 1.907h-1.437l-3.531.219-.938-.22-1.188-.5-3.28.25-2.844-2.124-.688-.469-.25-.469v-.25l-1.875.719-2.375.25-1.875-.719-3.531-.469-.938-.468-3.312.687-1.406-.219-1.438-.937-.219-.719-3.312-.25-2.125-.937-1.656-1.406-.47-1.407-.937 1.656-.469 3.063-1.187.688-.688 2.125.22.718.25 1.188h.468l.25.469-.969 1.875-1.156.718-.469 2.125v-.25l-.5-1.656-2.344.719v.687l-.718.719-.219 1.656-.719 1.188-1.406-.969-.938.469-.937.969-1.438 1.875-.468 1.875.469.25.937.218.719.5 3.062 1.406h-.937l-.469.688.469 1.188-.938 3.53 1.656 1.438-.468 1.156-1.438.47h-.687l-.719.468.25.719-.25 1.187-.25 1.406v2.594l.969 2.844.219.469L80 183.969l.938.937.718 1.906.469.688.469.719.719.937.937.938L85.406 192l2.125 2.094-.219.969.938.937.719 1.156.937.719.938 2.125.937-.719.469.719.719-.938.219-.25.968.47 1.406-1.407.47-.938 1.406 1.657.937 1.406.469 1.406 1.437-.219v-1.656l2.125-.469h1.876l.25-1.406 2.343-.25h.938l.468.719 1.906-.469.938-1.906-1.438-.469 1.438-2.125 1.156.25 2.125-.25v.469h2.375l.219 3.063 1.438 2.125 1.406.718h1.187l1.406-.469 1.188.22.469-.47.469-.687.468-3.313-.719.25-.468-.718-1.406.469-.72-1.875.47-.25 1.656-1.407.25-.469 1.625-2.593v.469H128.313l.718-.938h.719l1.406 1.406 2.844-3.062 2.813-5.188.25-.469-.72.22.938-1.626 1.875-3.781.719.219-.219.5h1.406v.469l.688.218.25 2.125v1.188l-1.188.937-1.156-.937-.25.937-.25.938.25.719 2.594.687.25.25.938.219.687-1.625.719-.719h.937l-.469.938-1.406 1.406.219 1.437v1.406l.969.25 1.875.688.719-.938 1.625-1.656.968-.687 1.406-1.906 1.157.468 1.437-1.156 1.156-1.656.5-.719-.25-.688 2.594-2.843.25.25.469-.5.219-.469 1.656-1.406.469-.938v-.937l.719-.938.468-1.437-.25-1.625.938-1.188-.219-.719 1.656-2.343.469-1.656-.469-.938-1.906-.469v-.469l-.469.22-.219-.22-3.062 2.344-.969.25-.687.219.469-.719 1.406-4.687-.469-.5v-2.094l.25-.25.469-1.406-1.188-.938-.719-.25.25-.219-1.406-2.125-.25-.468.469-1.656-.688-1.907.938-.469-.25-1.656-.469-.469v-.468L154.25 142v-1.156l-.469-.5-.469.25-.718-.25-.688-1.625-1.406.469-.469-.25-.25.25-.469.468h-.25l-.937.219v-.938l-.469-2.343.25-.938.219-1.437-.219-.688h-.969zm-14.125 41.25.218.219 1.188.25v.469l.25.719h.469l.218.937.25 1.188-1.406-.25-.5 1.187-1.875.688-.719.937-.469-.469v-.937h-.468l.469-1.656-.47-.22.25-1.655.688-.72.719.5.719-.5V175l.469-.219zm-8.25 12.969.218.219-.469 1.906-.468.688-.469.718-.719.719-.937.688v-.22l.25-.468 1.406-1.188.719-1.656.469-1.406z"/>
    <path d="m290.063 127.156-1.188.719h-.25l-1.625.469-.969.219-.937.468-.469.25h-.938l-1.187.688-.688-.688-.968-.469-.688.22-.937-.22h-1.656l.687.22 1.188.718.25.469h.687l-.469.469-.219.468.688.25.469-.469.25.22-.938 1.405h-.719l-.937-.218-.469-.469-.719.469-.687.469-1.656.25-.469-.97-3.063.47-.25.25-.218.718.219.938-.47.219-.468-.47-.25.72h-1.625V134l-.25-.469-2.813-.25-1.906.719-.937 1.406-1.406 1.406-.938-.468-1.656-1.188-.25-.469v-.468L258 134v-1.438l-.719-.687-.937.469-1.656-.25v.469l-.938.5-.25.218h.719l.469.719-.22.688-.718.718h-1.656l.469 2.125-.938.719 1.875.688-.469 1.906-.469-1.188-1.406.469-.25.469.469 1.187-1.156.469-.938-2.375v-.469l-1.187.25-.938 1.656.219 1.625-.219 3.063-.469 2.125-.718.719.219.469-.22.468h1.407l1.188.25v.469l-.72 1.406-.937 1.656-.219 1.188.22.688-.938.718h-.25l-.219.938.219 1.187-1.406 1.156h1.406l.719.5h1.187l1.875.688.25.25v.219l-.25.25v.219l-.719 2.593.25.469.469 1.188.25.937.469 1.906 1.156.938-.219.687-.469-.219.688.72 1.906-.25h1.406l.938-1.188.938-.219.5.688h1.875l2.343-.938.719-.469.219.719.719 1.406h-.47l-.25 1.875-.687.25-1.187.219.25.719h.469l.468.469-.469 1.187.688 1.406.719.25.719.938h.937l.219 2.344-.469 1.656-.219.25.469.469v-.47l1.406 2.345-.219 1.187.22.219H266v.25l.469.719.937.687.25.938v.718l.469 1.188-.219 2.812v1.188l-.5 1.187.969 2.125H270l1.188.219.937-.469.719.25.719-.5.468.5.688-.25h.937l.25.25.938-.5-.469-.469-.469-.218.469-.938-.219-.719-.969-.468-.218-.938.219-.719.25-.468v-.469l-.47-.719v-1.406l.938-1.406.938-1.188.469-1.187v.969l.468.468 2.125.938.25-.719 1.406-.688 1.875 1.157.97.719.937 3.53h1.406l2.125-.937v-1.406l.25-.969-.5-.937.969-.688 1.406-2.125.469.219.469.469 2.343.469.969-.47-.719-.218.25-.469-.5-.719-.219-.937.22-1.188.718-.937.719-.469.219-.25-.47-.937v-.469l-.218-.469.938-.719h1.187l.688-1.156.718-.25.469-1.406v-1.406l-.938-.719v-.25l.22-.938.937-.468.719-.688.937-.719.25-.468 1.188-1.188V166.75l-.72-1.875h-1.187l-.219-.469-.468-.25-.719-.219h-.719l-.219.47-.718-.938.469-1.188v-.719l-.688-.937h-.719v-.688l1.188-.718.469.469.687.25.25.218h.469l.25.25.687-.469h1.406l-.218-.968.719-.469v-.688l.937-.468-2.125-1.438.938-.469.25-.687.218.469.25.469.688-.47 1.437-.468-.25-.719.719-.469-1.188-.468v-1.406h.47l.468-.5.469-.938-.219-.219-2.125-2.125-.469-.937 1.156-.719.47-.469v-.469l-.688-.937h-1.406l-.72.469-.25-.938-.468-.5-1.156-.469-.719-.218-.25.687-2.125 1.438-.688.219-.718-.22-1.188-1.187v-.469l-.469-.718-.937-1.406v-.22l-.219-.25.688-1.655-.219-.22H291l-.469-.968-.25-1.156.25-.25.688-.938-.938-.469-.937-.718-1.656-1.156-.22-1.438.47-.688.468-.968 1.875-.688.25-.469 1.156.22v-.47l-.937-.468-.688-.219v-.719zm-41.97 36.313-.468.219-.469.718.938.219.469-.219-.25-.25v-.687h-.22z"/>
    <path d="m304.656 145.781-.469.469-1.156.719.469.937 2.125 2.125.219.219-.469.938-.469.5h-.469v1.406l1.188.469-.719.468.25.719-1.437.469-.688.469-.25-.47-.219-.468-.25.688-.937.468 2.125 1.438-.938.469v.687l-.718.469.219.969h-1.407l-.687.468-.25-.25h-.469l-.25-.219-.688-.25-.468-.468-1.188.719v.687h.719l.688.938v.718l-.47 1.188.72.937.218-.469h.719l.719.22.469.25.218.468h1.188l.719 1.875V168.406l-1.188 1.188-.25.469-.938.718-.718.688-.938.469-.219.937v.25l.938.719v1.406l-.469 1.406-.719.25-.687 1.156h-1.188l-.937.72.219.468v.469l.469.937-.22.25-.718.469-.719.938-.219 1.187.22.938.5.718-.25.469.718.219h1.406l1.406 1.187.25 1.406 1.407.72 1.875-.72-.469 1.657 1.656 1.187 1.406.938h.25l2.344.469.25.937-.469.469.47.719-.25.25 1.187.937.719.938-.25.718.468 1.156 1.656.72 1.875-.938.97-.25.468.25 2.594-.469-.25 1.156.469.719-.688 1.406-.719 1.188.469 1.406.469.938.469.25 1.906-1.188 1.625.25 1.437-3.781.688-.719.719-.688 1.406.688.469.5 3.78-2.125 2.594-2.594 2.344 1.625 4.031-.219v.72l-1.437.937.719 4.469-.25 1.406-1.406 1.437.937 2.094v.25l1.438 2.344.687-1.875.938-1.406.468-.47.5-.25v.25l-.25.22.469-.22.25-.25v-.218l.469-.25v-.219l.687-.469.25-.25v-.25l.219-.218.5-.25.688-.219V204l.718-.219.219-.25.469.25.25-.25.25-.219.469-.25.937-.468h.469l.719.25.218-.25h.469l.469-.25h.469v-.219h.718l.25.219h.219l.25-.219h.219l.469-.25.468-.219-.219-.25.47-.219H353.718l.937-.468h.469l.219-.25.719-.219h.25v-.719l.218-.25.25-.219.469-.468h.469v-.25l.219-.219-.22-.25h.47l.218-.219.25-.25v-.469h.469l.25-.25h-.25v-.468l.938-1.156.468-.72-.687-.468-.469-.469-.469-.719-.719-.937-1.187 1.188-1.406.687-1.406-1.875-1.188-.469-4-.25-1.438-1.875-.937-1.406.25-.938.469-.5.219-.468 1.437-.219v-1.188h-.938l.22.72h-1.657l-.469-1.188.938-1.656.469-3.063h-.688l-1.188-.688-.718-1.187-1.156.219-1.188.969v.468l-.719-1.906V175l-.219-.469.688-1.656v-.938l.25-1.406-.938-.937h.688v-.469h-1.625l-1.188.219-1.406 1.187-1.187-.719-1.188-.937-1.656-2.125-2.344.469h-3.312v-.469l.25-.938-.469-.687-1.906-1.906h-.938l-1.156-1.188-.25-.937.938-.219.25-.469.218-.969-.469-.468-.218-1.625-.25-.5-.469-.688v-.469l-.25-1.656.5-.25v-1.156l-1.438.219-.937-.469h-.469l-.25.719-.469-.25-.687-1.156-1.406-.25-.25-.47-1.188-1.655-.469-.72.47-.687-.688-.719v.25l-.719.938-.25.938-1.156.25-.938-.47-.969-.718-1.156-.25-.719.969-.25 1.156-1.156.469-1.906-1.875-.688-1.188-1.187-.937-.719-.938z"/>
    <path d="m364.094 133.281-.25.719h-.25v1.656l-1.406.688-.938.719-1.875.468h-.719l-.25 2.594.719-.25 1.188 1.906.218.938.25.687.719.25-.5 1.406-.219.47.469.968.469 2.594-.219.469h-1.188l-.468-.25-1.188.718-.25.219.5.469-.719 3.562.72.938h.937l1.156-.25.719.719.719 1.406-1.188.937v.469l-1.188.719-1.875.219-.468 1.187.219 2.844h-.22v1.406H357l-1.656.25-.688.219-.469.719h-.468l-1.656-.25.468 2.375-2.125 1.406 1.188 1.187 1.156-.25 2.375.719 1.875.938 1.906 1.406-.719.937-.718.938-.219.969 1.656 1.406.688 1.656.937 2.594-.469.687h-1.656l-1.406-.219-1.188.22.5 2.124 1.157 3.531 1.187.47.719 1.905-1.188.938.72.938.468.718.469.469.687.469.469-.25.5-.688.688-.25.937-.219.25-.25h.219l.25-.218.25-.25.219-.219.718-.5 1.156-.469h.97l.218.25.25.219v-.219h.219l-.219-.25-.25-.937h.938l.25.25h.218l.469-.25v-.219h.25l.25-.25v-.219l-.25-.5v-.219l.25-.25h.469l.219.25.25.22v-.22l.218-.468v-.25l.469-.469-.219-.219.469-.469-.25-.25h.25v-.25l.469-1.406.25-.937.469-.719.687-.469 1.188-1.156h.25l.218-.719.719-.937.938-.469 1.187-.25h.469l.469.25.218.219v.25l-.219.219h-.718v.25l.937-.25h.469V179.5h.25l.25-.25v.25h.219v-.25l.719-.219.218-.25-.219-.469v-.718h.47l.218-.219v-.25h.469v-.219h.469v.469l.25-.25h.468l.25-.219.688-.25.25-.219.219-.25h.25l-.25-.468.25-.719.468-.219-.469-.469.47-.468v-.469l.25-.25.687-.25.25-.469v-.219h.219l.25-.25.468.47.219-.22.25-1.187.469-.219v-.969l.469-.218-.22-.469v-.469l-.25-.469h.72l.218-.468.469-.25-.469-.469.25-.469-.25-.25.469-.219-.219-.25.219-.218-.219-.25h-.25v-.219l.25-.5v-.469l.938-.687.719-.469-.25-.969.25-.219.218-.468h-.219v.219l-.25-.22v-.25l-.218-.218.219-.25v-.219l-.22-.469-.5-.5H388.845v-.687l-.25-.719-.719-1.187-.469-2.094-.219-.719-.25-1.875v-1.437l.25-1.156v-1.188l.22-.719.25-.469v-.218l.468.219-.25-.22-.219-.25h.938v.25l.25-.25v-.218l.469-.719-.25-.25h-.22v-1.156l-.25-.25-.218-.219-.25-.25-.25-.25h.25l-.719-.469v-.218l.25-.25v-.219h-.25V142h-.469v-.688l-.218-.25-.25-.468-.469-.938-.219-.25v-.219l-.25-.468v-.25l-.469.25-.937.219-.25-.47.25-.218-.469-.25-.969.25-3.062 1.406-.688-1.406-2.125.688v-2.126l-.937-.218-.719-1.438-.469.5-.468.469-1.188.469h-.219l-1.437.219-1.156.468-.25.469h-.719l-.688-1.625h-.25l-1.406-.969-.719-.219-.218-.25-.25-.687h-.469l-.469-.719h-.687zm7.531 53.281.219.25v-.25h-.219zm-3.063 3.782-.718.219h.25l.469-.22zM390 147.438l-.219.218.219.25h.25l.469-.25v-.219H390zm.469.687v.25l.25-.25h-.25zm-10.344 31.594v.25l.219-.25h-.219zm-9.219 6.375.25.219h-.25v-.22z"/>
    <path d="m355.594 136.813-.938.25-1.187.687h-.719v.719l-1.406 1.875.469.969-.22.687v1.656l-.468.938-.719.25-.25-.25.25-.469-.25-.219-.469.469-.687.219-.469-.938-.25-.25-1.187-.469.25.97-.469.468-.469.688-.25.468v.969l-1.875.219.469 1.656-2.125.719h-1.656l-.219.469-.25.468-2.344-1.906-.25-1.156.25-.719-.25-.25h-1.187l-1.406-2.344-1.188-.25-1.875-.937v-.938l-.938-.469-1.187-.468h-2.344l-.937 1.406-.719-.219h-2.844l-1.875-.469h-.25l-.469-.25.25.938v.938l.47 1.187-.25 1.188.25.468v.938l-.72.937v1.438l.97.219.218.937 1.188.938 1.187 1.437v1.156l-.5.25.25 1.656v.47l.469.687.25.5.219 1.625.468.469-.219.968-.25.469-.937.219.25.937 1.156 1.188h.938l1.906 1.906.469.688-.25.937v.469h3.312l2.344-.469 1.656 2.125 1.188.938 1.187.718 1.406-1.187 1.188-.219h1.625v.469h-.688l.938.937-.25 1.406v.938l-.688 1.656.22.469v2.125l.718 1.906v-.469l1.188-.968 1.156-.219.719 1.188 1.187.687h.688l-.47 3.063-.937 1.656.469 1.187h1.656l-.219-.719H349v1.188l-1.438.219-.218.469-.469.5-.25.937.938 1.406 1.437 1.875 4 .25 1.188.469 1.406 1.875 1.406-.688 1.188-1.187 1.187-.938-.719-1.906-1.187-.469-1.156-3.53-.5-2.126 1.187-.219 1.406.22h1.656l.47-.688-.938-2.594-.688-1.656-1.656-1.406.219-.97.719-.937.718-.937-1.906-1.406-1.875-.938-2.375-.719-1.156.25-1.188-1.187 2.125-1.406-.469-2.375 1.657.25h.469l.468-.72.688-.218 1.656-.25h.719v-1.406h.219l-.22-2.844.47-1.188 1.875-.218 1.187-.719v-.469l1.188-.937-.72-1.406-.718-.72-1.156.25h-.938l-.719-.937.72-3.562-.5-.469.25-.219 1.187-.719.469.25h1.187l.219-.468-.469-2.594-.469-.969.219-.469.5-1.406-.719-.25-.25-.687-.219-.938-1.187-1.906-.719.25.25-2.594-.937-.25-1.656-.219-.47-.25zM173.125 164.875l-.719.25-.469.219h-.718l-1.406.719-.688 2.343-.969-.469-.687.72v.468l-.469.688-.938.718-.25.25-.468-.719v-2.593l-.719-1.188-.219-.937-1.656.469.219.718-.938 1.188.25 1.625-.469 1.437-.718.938v.937l-.469.938-1.656 1.406-.219.469-.469.5-.25-.25-2.594 2.844.25.687-.5.719-1.156 1.656-1.437 1.156-1.156-.469-1.407 1.907-.969.687-1.625 1.656h.688l-1.188 1.875.25.97.47.468.25.688-.72.25-.468.218.719.25.937.719v1.156l-2.594 5.188 1.406.719.938-.25 2.125-1.657 1.406.719-.937 1.188-.688 2.812-.5.719h-.469v1.656l.25.219v.469l.22 1.656v.25l.25 1.156-.72.25.25 2.594-.468 2.125-2.125.937-.469.719.219.469v.687l1.187.969h.469l2.844 1.156.687.25.25.469v.469l.688 2.125 1.437-.25 1.406.469.72-.47.687-.218.469.688 1.437-.688 2.594 1.188 1.406-.97.938.47 6.375.5 1.406.687.469.719.937.219 1.438-.22v-.937l-.97-.469-.218-1.437v-.688l1.656-1.187.219-1.875h-1.656l-.938-.469-1.187-.719-.219-.718-.469.25-.937-.25-.25-.469 1.187-.469v-.469l2.125-.718.219-.938.469-.469h3.562l.938.938.219-.688.468-.25h.719l.719-.218.219-1.656h-.938L178.062 208l-.687-.938v-1.406l-1.188-.719.47-.218.25-1.406-2.126-.25v-1.188l-.969-.219.72-1.406-2.126-.25 4.25-4 .938-.25-.688-.688-1.187-.5-.719-.687.938-3.313v-1.156l.468-.5.719-2.344-.219-.468.688-1.188 2.375.25 1.625.219 1.656-.219.469-.469 1.906-1.437 2.344-1.406v-.219l-1.875.688-.469-.938-1.906-1.406 1.656-.938.938-1.187.937-1.656-.469-1.875.25-.47V170.782l-.25-1.656-1.875-.719-.937.938-1.406 2.375-2.125-.719-.72-1.406-1.655.469.468-1.407-2.594-1.906-.687.25H175l-1.875-2.125zM291 185.156l-1.406 2.125-.969.688.5.937-.25.969v1.406l-2.125.938h-1.406l-.938-3.531-.969-.72-1.875-1.155-1.406.687-.25.719-2.125-.938-.469-.469v-.968l-.468 1.187-.938 1.188-.937 1.406v1.406l.469.719v.469l-.25.469-.22.718.22.938.968.469.219.718-.469.938.469.219.469.468-.938.5-.25-.25h-.937l-.688.25-.469-.5-.718.5-.719-.25-.938.469-1.187-.219h-1.625l-.969-2.125.5-1.187v-1.188l.219-2.812-.469-1.188v-.719l-.25-.937-.937-.688-.469-.718-1.188.937-.218.25-.469-.25h-.469v-.469l-.719.72-.937.468-1.188 1.656-.468-.5-2.594.969-.469-.25-.219.469h-.5l-.218-.219-.719-.969-.219-1.156-.469-.25-.25.469-.718-.219-.938-.25-1.406.25-1.188.938.47 2.125-.22.687 1.407.969-1.188.469.25 1.406h-.25l-.687.719-.469 1.156-.969.719v.718l-1.406.469.25.938.469 1.875h.219l.968-1.188.469-.219 1.156.469 1.188.25h2.125l.937.219.719.469 1.188-.22.218-.718 1.406-.719 1.657.969.937-.5v.969l.719 2.344-.25.718-.469.688-.219.719.22 1.875h-1.657l-.688.25-1.187.468-.688.719.938.688.688 1.187.468.469h.469l.5.469.938.468h.468l.469.469.469.469 1.656 1.906.688 3.281 2.375-.469.468-.468.25 1.406.219.5.469 1.156.719.938v.969h-.72l-.218.687-.25.469-.469.25.25 1.406.469 1.656.688.938.937 1.875-.219.25-.937 1.875h-1.188l.25.937 1.156 1.438.25-.469.938.688 1.656.718v.469h.219l1.906.25.469.219.688-.469.25-.469.937-.937v-.469h.469l.469-.969 1.437-.687 2.813.219h.25l.937-.688.938.219.718-1.156v-.72l-.969-.25-.468-.468 1.187-.938.938-.687-.219-.25.219-.719h.25v-2.125l.469.25 1.875-2.125 2.125-3.281.937-.25v-.469h.469l.969-1.187h.468l.219-.219.719-.719 1.187-1.875H295l.469-.469.25-.25h.687l.469.25.969-.25h.687l.25.47.688-.47.25.25.719-.25h1.406l.719.25.687-.5-.219.25.938 1.188H304.656l.5-.25h.688l.937-.219h.469l.969-.469.469-.5.218-.687-.219-.469.47-.25.468-1.187.469-.938.719-.687 1.156.219 2.375-.47 1.406.25h.25l.469-1.655 1.156-.938-.219-.25-.719-.938-.468-.25-.469-.937-.469-1.406.719-1.188.688-1.406-.47-.719.25-1.156-2.593.469-.469-.25-.969.25-1.875.937-1.656-.719-.469-1.156.25-.719-.718-.937-1.188-.938.25-.25-.469-.718.47-.469-.25-.938-2.344-.468h-.25l-1.407-.938-1.656-1.187.469-1.656-1.875.718-1.406-.719-.25-1.406-1.407-1.187h-1.406l-.969.469-2.344-.47-.468-.468-.469-.219zM75.281 174.313l-.719 1.656v1.406l-1.156 2.125-2.125-.25h-.937l-1.656.938-.47 1.187-1.437.469-.937 1.187-.688 1.188-.719 3.281-.718.719-1.875-.25-4.938.937h-.968v1.188l-.47 2.844-1.406-1.438-1.406 2.375h-.25l-.218 1.656-.47.469-3.062 3.063L47 201.188v2.593l.938.219 2.124 4.25.47.469-1.188 1.187-.219.688.219 3.094 6.375 1.156 3.062-1.406.719 1.656.219 1.406-.938 1.188.469 1.187-.469.688.719.937 1.156 2.125v.469L59 224.75l-.469.719-1.406 1.656-.938 1.875-1.656 2.125-.218.219-1.188.469-2.375.25-3.063-.47v1.657l.47 1.156v1.438l1.187.937v.469l-1.407 2.125.72.469-.25 1.187-.47 1.156-.937 1.657-2.125 2.125 4.719 4L51 253.28l-.938 1.188-.937.219-1.188 2.125.47.468 1.874 1.406-.218 1.657v.469l2.343 4.03 4.5.688 1.157-.469.25-2.812v-3.563l1.187-1.406 1.625-.937.469-.469.968 1.188 1.157 1.406.968 1.656.47.688.687 1.187.469 1.188 2.593.218.719-1.656 1.406-1.875.25-1.188 1.188-1.156 2.344 1.406h.718l.688-2.343.25-2.375-.469-.938.469-.937v-2.375l2.125-1.875.469-.25.687-.219 1.438-.938.687-2.125-.219-1.406-.719-1.656.47-2.844.25-.687.687.469 1.187-.97h1.875l.719-.218.25-2.375.469-.219.469-.937.218.219 2.125.468.719-2.125-.469-1.625.688-.937 1.187-3.094 2.125 1.188 1.875-1.657h.469l.25-.469h.25l.938-.937-.47-.219.22-1.656.937.219v-1.406l-2.594-.938-.937-.469h-.219v-.719l.938-2.125h.218l.25-.468h2.125v-1.406l-1.187-4.97-1.875-.687-.469-.25v-.469l.469-1.656.469-.687.218-1.188-.219-.469h.688l2.594-.468v-1.188l.25-.937-.25-1.188-.469-1.406-.938-1.406-1.406-1.656-.469.937-1.406 1.406-.969-.469-.218.25-.719.938-.469-.719-.937.719-.938-2.125-.937-.719L88.25 196l-.938-.938.22-.968L85.405 192l-1.156-1.906-.938-.938-.718-.937-.469-.719-.469-.688-.719-1.906-.937-.937-1.188-1.875-.218-.469-.969-2.844v-2.594l.25-1.406-2.594-.469zm29.469 38.656-4 .719-1.906 3.28.969.72.687.468 2.375-1.406.688-1.188.968-1.656.219-.937z"/>
    <path d="m244.313 159.438 1.187 1.437-1.875.938-.5 2.343-.469.469 1.656 1.906-.218.688h-1.656l-1.657-7.281h-2.344l-1.656 1.875-2.125 1.187-.937.469.219.469-1.407.218-.469 1.656.47.938-.47 1.438.22.937h-.47l-2.125-1.656-1.625.25-.25.687v1.875l-.718-.219.25-.937-.938-.719-.469-.687-.718-.5-1.656-1.156-1.157.937h-1.656l-2.375.938-.219-.72-.469.25-.718-.937-.25.688h-1.406l-1.188-.219.5-.938-.5-.468-1.156-.469-.469-1.656v-.25l-1.656.469-1.875.25-1.188-.72.219-.687-.469-.25-.687-1.656-1.188-.469-1.187.719-.469.688.469.468v.719l-.688.469 1.156 2.125-.468.25-.688-.25h-.5l-.937 1.187-1.156 1.188-.72 1.156-1.405.469-.47-.219-1.655 2.344h-.25v-.688l-.938.469-.938 1.406 1.657 1.188.687-.469 1.438-1.188.687.22 1.406.468.97 1.906V175l.468 1.438-.469 1.406.469.469-.719.937-1.656.469.469.937-.469 1.906-2.125 1.157-.469 1.187.469.719v.469h.469l-.219.219.469.968-.938 1.406.219.47-1.406.25v.218l1.187.719.219.687v.719l-.219 1.406-.25.469-.469.719-.218 1.187.219.688.718.25h.688l.969 1.875v.469l-1.438-.47-.469-.468-1.406-.219-1.406.469-.938.938-.969.468.5.469h.938l.688.938 1.906.718 1.406-.25.469 1.188h.25l1.406-.719.938.969-.47.937v.688l.938.25-.469.937.938.719-.469.938.25.937.938 1.875h.469v-1.406l.937-.219h.938l.937 1.156-.469 1.188 2.125 3.312h.25l1.188-.25.937.469.469-.688.688-.718v-.469l.5-.469.687-.719.719-.468.219-.719 3.312.25 1.188-.469.687-.719.938-.218-.22.937.22.938 1.187.469-.219 1.406-.25.969v1.875l1.656.937 1.188.25.219.219.719.719 1.656 1.187H229l.219-.969-.219-2.344.219-.718.937.937 1.656-.469.938-.687-.219-1.656-.25-2.594-.219-.25.938-1.156.25-.25.938-.938 1.656-.469L237 208.5l.469-.719.469.219.5.5v1.156l.468.25.469.469h.938l.468.219 1.188-.469h1.406l.938-.938h1.406l.969-.687v-.719l-.5-1.406v-.719l.718-.719-.219-1.625.938-.468.469-1.906-.469-1.875-.25-.938 1.406-.469v-.719l.969-.718.469-1.156.687-.72h.25l-.25-1.405 1.188-.47-1.406-.968.218-.688-.469-2.125 1.188-.937 1.406-.25.938.25.719.219.25-.469.468.25.219 1.156.719.969.219.219h.5l.218-.469.469.25 2.594-.969.469.5L262 187.75l.938-.469.718-.719v.47h.469l.469.25.219-.25 1.187-.938v-.25h-.469l-.219-.219.22-1.188-1.407-2.343v.469l-.469-.47.219-.25.469-1.655-.219-2.344h-.938l-.718-.938-.719-.25-.688-1.406.47-1.188-.47-.468h-.468l-.25-.719 1.187-.219.688-.25.25-1.875h.469l-.72-1.406-.218-.719-.719.469-2.344.938h-1.875l-.5-.688-.937.219-.938 1.187h-1.406l-1.906.25-.688-.719.47.22.218-.688-1.156-.938-.469-1.906-.25-.938-.469-1.187-.25-.469.719-2.594v-.218l.25-.25v-.219l-.25-.25-1.875-.688h-1.188l-.718-.5h-1.406zm3.78 4.03h.22v.688l.25.25-.47.219-.937-.219.469-.719.469-.218zm-36.78 7.063h.468l.469.719.469-.719.719.469-.938 1.656-.25-.719-.938-.468h.47l-.47-.938zM132.813 174.781l-.47.219v.469l-.718.5-.719-.5-.687.719-.25 1.656.469.219-.47 1.656h.47v.937l.468.469.719-.938 1.875-.687.5-1.188 1.406.25-.25-1.187-.219-.938h-.468l-.25-.718v-.469l-1.188-.25-.219-.219zm6.343.469-1.875 3.781-.937 1.625.719-.219-.25.47-2.813 5.187-2.844 3.062-1.406-1.406h-.719l-.719.938h-2.593v-.47l-1.625 2.595-.25.468-1.656 1.406-.47.25.72 1.875 1.406-.468.469.719.718-.25-.469 3.312-.468.688.469.25 1.156.468 1.187.719 1.906-1.188 1.157-1.187.469.25-3.532 3.281 1.188.469.469-.938.718-.218.938.469.937.468.469.219.25.469-.969.969h-.687v.468l-.25.219v.469l-1.406-.688-.938-.25-.719.938.719.469-.719 2.593-1.406.469-.25 1.438-.219.218-.469.25-.718.219-.219.969h-.5l-.219.937.469.469-.25.688.719.5-.469.937.469.938-.219.718v.688l-.25.469-.938 1.437V220.031l-.468.719.687.469.469.719.969.687.687.938.25.468-.469.25.47 1.406-.47.938-.718 2.125.937.25 2.844.719.219.687.719.469h2.125v.938l.218-.47 1.656 1.188 1.188.938.938.25 1.406 1.156 1.187.5.719.219.688.25.25 1.156 1.406-.469 1.187-.469v-.468l3.063-.719 2.125-.938h.937l-.469-2.125-.937-.687-.25-1.188v-.718h.469l.25-.219.219-1.875h-.47l-.218-.25h.938l.25-.25v-.219l-.97-.25.25-.469 2.595-.468 2.125-.688.468-1.906.688-1.406-.688-2.125v-.469l-.25-.469-.687-.25-2.844-1.156h-.469l-1.187-.969v-.687l-.219-.469.469-.719 2.125-.937.469-2.125-.25-2.594.718-.25-.25-1.156v-.25l-.219-1.656v-.47l-.25-.218v-1.656h.47l.5-.719.687-2.813.937-1.187-1.406-.719-2.125 1.656-.938.25-1.406-.718 2.594-5.188V192l-.938-.719-.718-.25.469-.219.718-.25-.25-.687-.469-.469-.25-.969 1.188-1.875h-.688l-.718.938-1.875-.688-.969-.25v-1.406l-.219-1.437 1.406-1.406.47-.938h-.938l-.719.719-.688 1.625-.937-.219-.25-.25-2.594-.688-.25-.718.25-.938.25-.937 1.156.937 1.188-.937v-1.188l-.25-2.125-.688-.219v-.468h-1.406l.219-.5-.719-.219zm-14.594 12.5-.468 1.406-.719 1.656-1.406 1.188-.25.469v.219l.937-.688.719-.719.469-.719.469-.687.468-1.906-.219-.219zm14.126 11.531.25.469-2.844 2.375-1.625.719-.469.219-.5-.22 3.063-3.093.25.25 1.875-.719z"/>
    <path d="m258.688 199.281-1.407.719-.219.719-1.187.219-.719-.47-.937-.218h-2.125l-1.188-.25-1.156-.469-.469.219-.969 1.188h-.218l-.469 1.906-.938.469.22 1.625-.72.718v.719l.5 1.406v.719l-.968.688h-1.406l-.938.937h-1.406l-1.188.469-.469-.219h-.937l-.469-.469-.469-.25V208.5l-.5-.5-.468-.219-.469.719-1.156-1.188-1.656.47-.938.937-.25.25-.938 1.156.22.25.25 2.594.218 1.656-.938.688-1.656.468-.937-.937-.219.719.219 2.343-.219.969.688.469.718-.25.938.719.937.687-.687.469 2.812 1.187h1.188l.25 1.188.219.219-.22.968.47.469.218.469.469 1.156.25.969.469.937.469.469.25.219.937.25v2.125l-1.656.469-.719 1.187-.688.938-.25-.25-.218.468.469.969.937.688.219 1.406 1.187 1.187.719-.687v.687l.219.469 1.187.719.719-.469.938.938.468 1.406.469.469.719.718.219.719v-1.438l.468-1.156.25-.969h1.656l1.157.5.25 1.157.687.469.25.718 1.188-.469 2.344.22-.22.718-.25.469v.25l.47.687.468.25.25.469.219.938.25.468h.219l.5.25-.25-.469v-.718l.25-.25-.719-.469.219-.469-.469-.937 1.188.719h.25l.937.468.688-.719.718.47 1.656.718 1.188-.938.469-1.906.469-.469h2.125l.468-.468.938-.469.469-1.188.937-.468.469-.688H267.406l1.438-.937.469.469h.937l.719-.72-.25-.25-.219-.687.219-.937 1.187-.719v-.469l-1.656-.719-.938-.687-.25.469-1.156-1.438-.25-.937h1.188l.937-1.875.219-.25-.938-1.875-.687-.938-.469-1.656-.25-1.406.469-.25.25-.469.219-.688h.719v-.968l-.72-.938-.468-1.156-.219-.5-.25-1.406-.469.469-2.375.468-.687-3.281-1.656-1.906-.469-.469-.469-.469h-.469l-.937-.469-.5-.468h-.469l-.469-.469-.687-1.188-.938-.687.688-.719 1.188-.469.687-.25h1.656l-.219-1.875.22-.718.468-.688.25-.719-.719-2.343v-.969l-.937.5-1.656-.969zM177.594 184.906l-.688 1.188.219.469-.719 2.343-.469.5v1.156l-.937 3.313.719.688 1.187.5.688.687-.938.25-4.25 4 2.125.25-.719 1.406.97.219v1.188l2.124.25-.25 1.406-.469.219 1.188.718v1.406l.688.938 1.187 1.438h.938l-.22 1.656-.718.219h-.719l-.469.25-.218.687-.938-.938h-3.562l-.469.47-.219.937-2.125.719v.468l-1.187.469.25.469.937.25.469-.25.219.719 1.187.718.938.469H175l-.219 1.875-1.656 1.188v.687H175l.469-.688 1.187-.25 3.781 2.125-2.843 2.125.469.72 1.437-.25.219.718v1.875l-1.406-.469-1.188 1.188-2.594-.469-.719 1.406-.218.938v.937l.469.25.25.688.937.469.688.468.25-.219.218.47 2.125.468 1.438 1.188v.218h.937l.688.469h.969l.218 1.188.938.468.25.938v1.437l-2.125 2.594.719.938v.468h2.343l.938 1.188 1.187-.938 2.813-.969-.219-.468.938.469v-.688l1.187-.25.219-.688 1.437.22.688 1.187 2.844-1.188-.47-1.656-1.187-.219-1.187-1.656.25-1.656 1.187-1.188 2.094-.469v-1.156l.719-.5h.469l-.47-1.406h.938l2.125.938 3.313.25h2.344l2.375 5.187h.468l.938.938h.219l.5.468 1.406.25.937.469 1.188.469h.469l-.25.937 2.375 1.188.687-1.188V239.125l2.594-.469-.469-.937v-.25l.25-.469 1.406.469V237l.719-.688 1.406-.718 1.656-1.875v-.25l.47-1.188h.687l.719-.219v-1.656l-1.188-.937-.938-.719-1.187-1.625-.219-.25.219-.25-.469-.219-.469-1.656-.687-.219h-.719l-.469-.25-.718-.719.25-.687.937-.719.938-5.187-.219-.219-1.188-.25-1.656-.938v-1.875l.25-.968.219-1.406-1.188-.47-.218-.937.219-.937-.938.219-.688.718-1.187.469-3.313-.25-.218.719-.719.469-.688.718-.5.469v.469l-.687.719-.469.687-.937-.469-1.188.25h-.25l-2.125-3.312.469-1.188-.938-1.156H204l-.938.219v1.406h-.468l-.938-1.875-.25-.938.469-.937-.938-.719.47-.937-.938-.25v-.688l.469-.937-.938-.969-1.406.719h-.25l-.469-1.188-1.406.25-1.906-.719-.688-.937h-.938l-.5-.469.97-.469.937-.937 1.406-.469 1.406.219.469.469 1.438.469v-.47l-.97-1.874h-.687l-.719-.25-.218-.688.219-1.187.468-.719.25-.469.219-1.406v-.719l-.219-.687-1.187-.719v-.219l-.938-.969-.25.25-.937.47-.469-.25v.968l-1.188.219-.687 2.125h-1.406l.219.719h-.47l-.25-.72.5-.937-.718-.25-.469-.469-.469-.687h-.937v-.469l-.719-2.125-2.375-.469.25.22-.25.468.25 1.406-.469.5v.469l-.718-.469-.469.219-.219.25h-.469l-.718-.719.937-.469.25-.718v-.938l.219-1.875-1.656.219-1.625-.219-2.375-.25z"/>
    <path d="m198.344 230.875.469 1.406h-.47l-.718.5v1.157l-2.094.468-1.187 1.188-.25 1.656 1.187 1.656 1.188.219.469 1.656-2.844 1.188-.688-1.188-1.437-.219-.219.688-1.188.25v.688l-.937-.47.219.47-2.813.968-1.187.938-.938-1.188v.25l-1.187.469-.688-.25-.25 1.188.938.468-.219.469-.25.469.469.469.469 1.875-.688.5-.469 1.156-.469.937-.25.719 4.25-2.125 1.188.938 2.094.468 1.187 1.438.469 1.156.719.25.719-.25.937.5v.688l.219-.22.469.22.25 1.187-.938.219-1.438 1.656.72.719.25 1.406.687 1.188V262h.469l1.906.938v.25l-.719 1.656v.687h.25l1.406.938 1.188.469.469-1.157 1.156-.719.25.25.469-.468.468.219-.469.468h-.468v.719h.219l-.22 1.188-.718.937.719.938-.719.937v.25l-.219 1.156h-.469l-.968.719-.938-.469h-.469v-.25l-.218-.219-.25-.25-2.813-.468.688.937v.938l.937 2.125 1.188.25.937-.25.938.719.719.718.718.688.938-.219.219-.719.25-.469.937-.468.469-.469 2.844-1.188.218-.937.25-.719.469-.687 1.656-1.906v-.22l.469-.937.719-.969.469-1.156-.25-.719.937-.718 2.375.5 1.156.687.469-.219.25-.25.938-.468.718-.25v-.688l.688-.469-.219-1.437.719-.688.687-.468h.719l1.188.469.468.218h.938l1.656.25.938.469.468-.25 1.406.719.938-.469h.25l.719-.938.469-1.187 1.406-.938v-.718h1.187l1.156-.938.938-.937-.938-1.188-.218-1.406-1.438-.719-.687-.687-.25-.938 1.187-.719-.25-1.187.25-.938.938-.468-.469-.719.938-1.406-.22-.25.47-.938.468-.219.219-.25-2.344-3.75-.25-.5-.219-.468v-1.406l-.25-1.188-1.156-.938-1.656-1.187-.938-1.406v.25l-1.656 1.875-1.406.719-.719.687v.469L220.75 237l-.25.469v.25l.469.937-2.594.469v1.656l-.688 1.188-2.375-1.188.25-.937h-.468l-1.188-.469-.937-.469-1.406-.25-.5-.469h-.22l-.937-.937h-.469l-2.375-5.188h-2.343l-3.313-.25-2.125-.937h-.937zm2.844 31.594h.937v.25l-.719.469-.719-.25.5-.47z"/>
    <path d="m182.781 236.063-.719.25-.937 1.156-.688-.219-.25.219v.969l-.468.687-.719.938-1.406.718h-1.406l-1.407 1.188-.719.687-2.343-1.875-1.656.938.218.719-.687.937-1.656.469-1.188-.469-1.875.469V241.5l-.25-.719-.219-.219-.937 1.157-.5.469-.469.468-.219.969-1.187.469-.719.469-.469.937h-.469l-1.156 1.188-1.437.687.25.938-1.188 1.656.25.469H154.5l-.25.718v.719l-1.156.219-.5 2.844v.687l-.219.469-.469.969-.469.468-2.125 1.406-.937 2.125h-.25l-.469-.718-1.406.25-.938.469-1.656.687-.937.5H142l-.938.469-1.906-.469L138 262l.219-.469-.469-.469-4.25-.937v-.25l-.219-.719-2.594 1.188 1.407 1.906 1.406.469-1.156 1.625.219 3.094-.688.937 4.219.688 1.187-.22.719 1.407 1.156-.469h.5l.688.25 1.906.469-.25.688.469.718 1.875 1.656-.688.688 2.344 1.438v-.25l.719.25.937-1.188.938 1.188.469-.5.25-.22.218.22.25.25 1.188 1.187.469.469.687.219.25-.688.719.219v.25l-.25.219.25 1.656h1.406l1.656.719v-.72l-.719-1.406-1.187-1.406.469-.719 1.656.72.719-1.188.219-.469.968-.469.469.469.469-.469 1.156-.25.25-.469v.25l.25.22.688.25.937.937.469.469 1.437 1.406.938-.219.469.938h.25l.218-.72.25-.468.688.25.25-.719-.469-.937-.469-.25.219.469h-.688l-.25-.47-.468-.937.719.25.218-.25.469.25.469-.469-.219-.718.938-1.656 1.187.718v.469l.219.469 2.125.469.937.468h.938l1.187-.219.469-.718.469-.469 1.906-.469-.25-.719-1.656-.937-2.594-.219.719-.969v-.218l.719-.719 2.093.469h1.438l-.719-1.406.469-.72h-1.406l-3.063-1.156 1.188-.968.937-.219.469-.469.469-.719-2.125-1.875-.47-.718 7.313-4.938 3.75.219.969-.688 1.156.22.719-.938 1.188-.719 1.156-2.594-2.094-.469-1.188-.937-4.25 2.125.25-.719.47-.937.468-1.156.688-.5-.47-1.875-.468-.47.25-.468.219-.469-.938-.469.25-1.187.688.25 1.187-.469v-.25h-2.344v-.469l-.718-.937 2.125-2.594v-1.437l-.25-.938-.938-.469z"/>
    <path d="m189.844 250.906-1.156 2.594-1.188.719-.719.937-1.156-.219-.969.688-3.75-.219-7.312 4.938.469.719 2.125 1.875-.47.718-.468.469-.938.219-1.187.969 3.063 1.156h1.406l-.469.719.719 1.406h-1.438l-2.094-.469-.718.719v.219l-.719.968 2.594.219 1.656.938.25.718-1.906.469-.469.469-.469.719-.719.468-.218 1.875-.719.719h-.938l.47 2.594.718-.25.688-.938 1.187.25h1.188l1.187 1.406h.688l1.437-.25 2.563-.687.25 1.406.937 2.594.938 1.406.25.25 3.312-.719h.219l.469-.468 1.187-.25 3.531-.469 1.188-.219h3.531l.938-.469.25.22.468-.22h.219l.469-.25v.25l1.656-.25.469-.218-.469-1.188v-1.406h.719l.469.688.218-.22-.687-1.437-.469-.469.219-1.406-.469-.937-.938.469-.25.468-.218.719-.938.219-.719-.688-.718-.719-.938-.718-.937.25-1.188-.25-.937-2.125v-.938l-.688-.937 2.813.469.25.25.219.218v.25h.468l.938.469.969-.719h.468l.219-1.156v-.25l.719-.938-.719-.937.719-.938.219-1.187h-.22v-.719h.47l.468-.469-.469-.218-.468.469-.25-.25-1.156.718-.47 1.156-1.187-.468-1.406-.938h-.25v-.687l.719-1.656v-.25l-1.906-.938h-.47v-.938l-.687-1.187-.25-1.406-.719-.719 1.438-1.656.938-.219-.25-1.188-.47-.218-.218.219V254l-.938-.5-.718.25-.719-.25-.469-1.156-1.187-1.438zm11.344 11.563-.5.469.718.25.719-.47v-.25h-.938zM125.031 254.938l-.469.687-.937.969-.5 1.625-1.156.469-1.438 1.187h-2.562l.937 2.375-.469 1.156.688 1.188 1.406-1.188.25-.219 1.656.688-.468.719-.25 2.344.719 1.906v.469l-.47-.25-1.187.968-1.406.938-.719.937-.937.219-2.125.25-.938.469 1.188 3.312v2.125l-.719.938-3.781.469h-.688V281.344l1.625.469 1.656.218-.468.469v.938l.25.718-.719 1.656-1.188 2.125-.218 1.407v.719l-.469 1.656-1.188.937h-2.593l-.938-.469-.937-.718L105 291l-.719.219.25.719H105l.469.468.469 1.906.468.688 1.656.469 1.626 1.406-.22.25-.25.469v.719H109l-.25-.47.25-.468v-.5l-.719-.219-.469.219-.468.719h-.25l.25.719-.25.468.25.938v.937l-.469.469-.938.25v.219h-.718l-.219.25-1.656-.938-.719-.719-1.406 2.125-.25.47-.938 1.187-.937.937-.469.719.219.688v1.187l-.219.719-.938 2.594.22.468.468.469 1.188 2.813.468.718.938 2.594 1.656 1.406-.219.25 2.125.219 1.156.469 1.188.25.469-.938.469-.937.718-.5H109l.469-.219.469-.719v-.219l.25-.468.468-.25 1.156-1.656.47-.47.5-.218.468-.469 1.156-1.187h.719l.719-.25.469-.219.687-1.906.25-.219.219-.25 2.125-2.344.937-.937.5-.25.938-.938 1.156-.719.719-.468.469.25.25-.25h.468l1.188-.938.687-.219h.25l.219-.25h.25l.219-.25h.25l.219-.218v-.25l.5.25v-.25l.218-.219h.469l.25-.25h.219v-.219l.719-.469h.218l.25.22h.469l.469-.22h.25v.47l-.25.218.469-.219v-.25l.25-.219h.687l.719.22h.719l.937-.47 1.656-.218 1.406-.5-.25-.469-1.406-1.156-.469-.719-.468-.719-.25-.937v-1.656l.969-.938.687.469.719.719h-.25v.25l1.437.468.469-.25v-.719l-.25-.468v-.688l-.219-.937-.5-.25.25-.938.25-.25 1.156.25 1.438.938.938.25 1.406 2.094H146l-.469-.688-.469-.469.72-.719-.25-1.187-.47-.469-.218.469-.5-.688.5-.937 1.406.219v.25l-.719.219.469.718 1.656.219.25-.469-1.437-.687-.469-1.438-.938-.687-.718-.25-1.625-2.594-.469-.469 1.156-.937.25-.719h.469l1.656-2.125v-.219l.469-.719.469-1.875-.25-.25.25-1.156-.719-.469-2.344-1.437.688-.688-1.875-1.656-.469-.719.25-.687-1.906-.469-.688-.25h-.5l-1.156.469-.719-1.406-1.187.219-4.219-.688.688-.938-.22-3.093 1.157-1.625-1.406-.469-1.406-1.906 2.593-1.188-1.875.25-1.437-.719-.469.25h-.688l-.5-.25-.218-.687-.938.688-1.187.25v-.72l.25-1.624.219-.719-.938-.719-.469-.219zm6.594 45.718.25.25v-.25h-.25zM276.375 85.656l-.719 1.438-1.156.219-2.375.718-.938.469-.937.469-2.344-.25-1.437-1.156-1.656.468-.938.469-.938.469-1.187.719-.688 1.874-.718.688.25 1.656-1.438.719-1.875.938-.469 1.656-.25.219-.937-.688-.938.688-1.187.5h-1.875l-1.656.218-1.406 1.406-1.407.97h-.969l-.468-.5v1.437l-1.406.687-.688-.219h-.969l-.687.688-.469 2.594 3.063 1.906h1.156l1.187-.938 1.188-.25h1.406l1.656.72.938.687 1.187.719.938.468.719.25-.47.938-1.655.937-.25.469-.938.938-.719 1.406-.937 1.187v.25l-.219 1.656-.25.688-.938.719.72.937.687 1.656.469-.468 1.187-.469 1.188.219-.25.719-.22.687.22 2.375.718.219.688.25-.469.469.25 1.406-.469.937h-1.656l-.938-.687-.718.687-.219.969-.719.688-1.875.25-.25-.47-.937-.937.937-1.656-.219-.469-.5-.969 1.188-.468h-2.344l-1.656-.469-.938-.219v3.063l1.657-.25h1.406l-.25.719.25.718 1.188 2.344.218.469v.719l2.594-.47.938.688.718.938.938-.219.469.469.718.719.219.218.25-.219.938-.5v-.468l1.656.25.937-.469.719.688V134l.219.219v.469l.25.468 1.656 1.188.938.469 1.406-1.407.937-1.406 1.906-.719 2.813.25.25.469v.938H270l.25-.72.469.47.469-.22-.22-.937.22-.719.25-.25 3.062-.468.469.969 1.656-.25.688-.47.718-.468.469.469.938.219h.718l.938-1.407-.25-.219-.469.47-.688-.25.22-.47.468-.468h-.688l-.25-.469-1.187-.719-.688-.219h1.657l.937.22.688-.22.969.47.687.687 1.188-.688h.937l.469-.25.937-.469.969-.218 1.625-.469h.25v-2.594l-1.406-1.187-.25-1.188-.938-.687-.719-.719 2.375-.25 1.188-.469h.469l.937-2.125-.719.25-1.187.219-1.406-.469L287 117.5v-.719l.688-.469 1.187-.25 1.656-.687.938-.469v-.25L291 113.47l-.25-.469 1.438-.938 2.093-.687v-.969l.969-.687 1.156.219.469.25.25-.72 2.125 1.188.469-.469 1.187.688 2.594-1.406-.469-2.125 1.625.25 1.188-.469v2.594l.469.687 2.375.469h.937l.938-.469 1.406-.469-1.156-.687-2.844-.25.719-2.344-.47-1.906-.5-.938.5-1.406-1.656-.937-2.125-.469-.937.219-.469-.219-.719-1.188-.718-1.406-1.156-.719-.47-1.187-1.437-.219-.937-1.187v-2.125l-3.531-.219-1.657-.969-1.406-.219-2.125-.468-1.406-.938-.25-.969-.219-.218h-1.656l-1.188-.938-.937-.937-1.656.937-1.657-.937-1.156-.969-1.438-.469h-.937zm-27.813 48.094.22.25-.22.469-.25.219-1.625.25v.718l.47 1.406v.47l.218.218.719-.219.219-.25.25-.687v-1.188l1.406-.719v-.218l-.688-.469-.719-.25zM111.125 193.156l-1.438 2.125 1.438.469-.938 1.906-1.906.469-.469-.719h-.937l-2.344.25-.25 1.406h-1.875l-2.125.47v1.655l-1.437.22.25 1.187-.25.937v1.188l-2.594.469h-.688l.22.468-.22 1.188-.468.687-.469 1.656v.47l.469.25 1.875.687 1.187 4.969v1.406h-2.125l-.25.469h-.219l-.937 2.125v.718h.219l.937.469 2.594.938v1.406h1.438l.468-1.406-.25-.938.25-.25 1.156.719.25-.938 1.407-.719 2.375.47.687.25.25-.47.688.47-.219.218.469.469 1.656-1.156-.25-.25h.938l.25-.22 1.874-1.655.72.218v.469l.718 1.188 3.531-2.344.688.219h.25l.719.468 1.874.25 2.126.719.937-1.438.25-.468v-.688l.219-.719-.469-.937.469-.938-.719-.5.25-.687-.469-.469.219-.937h.5l.219-.969.719-.219.468-.25.219-.219.25-1.437 1.406-.469.719-2.594-.719-.468.719-.938.938.25 1.406.688V204l.25-.219v-.469h.687l.969-.968-.25-.469-.469-.219-.937-.469-.938-.468-.719.219-.468.937-1.188-.469 3.531-3.281-.468-.25-1.156 1.188-1.907 1.187-1.187-.719-1.156-.469-.47-.25-.468.47-1.188-.22-1.406.47h-1.187l-1.406-.72-1.438-2.125-.219-3.062h-2.375v-.469l-2.125.25-1.156-.25zm27.563 6.125-1.875.719-.25-.25-3.063 3.094.5.219.469-.22 1.625-.718 2.844-2.375-.25-.469zM104.75 212.97l-.219.937-.969 1.656-.687 1.188-2.375 1.406-.688-.469-.968-.718 1.906-3.281 4-.72zM331.313 195.531l-2.594 2.594-3.781 2.125-.47-.5-1.406-.688-.718.688-.688.719-1.437 3.781-1.625-.25-1.906 1.188.718.937.219.25-1.156.938-.469 1.656h-.25l-1.406-.25-2.375.469-1.156-.22-.72.688-.468.938-.469 1.187-.469.25.22.469-.22.688-.468.5-.969.468h-.469l-.937.219h-.688l-.5.25h-.687l-.938-1.188.219-.25-.688.5-.718-.25h-1.406l-.72.25-.25-.25-.687.47-.25-.47h-.687l-.969.25-.469-.25h-.687l-.25.25-.469.47h-.219l-1.187 1.874-.719.719-.219.219h-.469l-.968 1.187h-.469v.469l-.938.25-2.125 3.281-1.875 2.125-.468-.25v2.125h-.25l-.219.719.219.25-.938.688-1.187.937.469.469.968.25v.719l-.719 1.156-.937-.219-.938.688h-.25l-2.812-.22-1.438.688-.468.969h-.469v.469l-.938.937-.25.469-.687.469 1.656 2.844 1.156 1.625.72-.47H278.5l.25-.218 1.156-.719.469-.219.25-.25h.219l.969-.468h.687l-.219.25-.25.219h.25l.219-.22.719-.5.469-.218.468-.25h.719l.469-.219.687-.25h.5l.469-.219.469-.25h.219l.468-.218.25-.25.219-.219h.25l.25.219h.219l.25-.219v-.25h.219l.25-.25.468-.219.469-.25.219-.219.719-.468h.25l.218-.25h.25l.469-.469h.219l.25-.219.219-.25.468-.719.5-.218.219-.25.469-.219.25-.25h.219l1.187-.938.25-.218.469-.25h.219l.25-.469v.219h.218V229l.25-.469.219-.25.469-.219.25-.25v-.218l.469-.25.468-.469h.469l.938-.469 1.187-.25.25-.219h.469l.219-.25h.25v-.218h.218l.25-.469h.25l.219-.25h.25v.25l-.25.219.469-.219v-.25l.469-.219h.25l.687-.719 1.188-.468 1.875-1.188.968-.219v-.25h.688l-.219.72h-.25v.218l.469-.219.25-.469.687-.5.25-.218L316 220.03l1.406-.687 2.125-.969.688-.469.937-.219 4.031-1.656 3.75-1.406 1.188-.719.719-.219.687-.718h.25l2.125-1.188.938-.469 2.344-.218.25-.25.25-.25-1.438-2.344V208l-.938-2.094 1.407-1.437.25-1.406-.719-4.47 1.438-.937v-.719l-4.032.22-2.344-1.626zm-42.188 40.063h-.5v.25l.5-.25zm-.719.25v.219h.219l-.219-.22zM223.094 216.969l-.938 5.187-.937.719-.25.688.719.718.468.25h.719l.688.219.468 1.656.469.219-.219.25.219.25 1.188 1.625.937.719 1.188.937v1.656l-.72.22h-.687l-.469 1.187.938 1.406 1.656 1.188 1.156.937.25 1.188v1.406l.22.469.25.5 2.343 3.75-.219.25-.469.218-.468.938.219.25-.938 1.406.469.719-.938.469-.25.937.25 1.188-1.187.718.25.938.687.687 1.438.719.219 1.406.937 1.188-.938.937-1.156.938h-1.187v.719l-1.406.937-.47 1.188-.718.937h-.25l.25.25-.25 1.156.469 1.656 2.594.938-.47 2.125.25.25h1.657v-.469h.219l1.656.469.469-.719.469.25.937-1.187.969-.25.219.469 1.875 1.437-.47.469v.687l.72 1.438h6.843l2.594-.469 2.594-.469 3.281-.969 3.563-1.406 1.875-.937.468-.719.719-.219h.688l.25.219-.25-.469-.22-.219h.47l.468-.468-.469-.25.688-1.406.25-.47.469.47h.25l-.5-.47V262.25l-2.094-.25-2.125-.938-1.188-1.406-.937-.719.219-.25-.688-.687 1.406-.938-.468-.968-.719-.688-.469-.719.25-.218.688.219.719-.22.468-1.655-.219-.47v-.718l-.5-1.188.72-.937-.22-.688-.25-.718h-1.875l-.718.937-.719-.469v-.718l.969-.469v-.219l-.5-.25-.688.719v-.469l.469-.25-.25-.469-.688.47-.718.468-.219.469-.25-.469v-.219l.25-.25-.5-1.187.5-.219v-1.406h.219v-.25l.25-.469.219-.719-2.344-.219-1.188.47-.25-.72-.687-.468-.25-1.156-1.156-.5h-1.657l-.25.968-.469 1.156v1.438l-.218-.719-.719-.719-.469-.468-.469-1.406-.937-.938-.719.469-1.187-.719-.219-.469v-.687l-.719.687-1.187-1.187-.219-1.406-.938-.688-.468-.969.219-.469.25.25.687-.937.719-1.188 1.656-.468v-2.125l-.938-.25-.25-.219-.468-.469-.469-.937-.25-.969-.469-1.156-.219-.469-.468-.469.219-.969-.22-.218-.25-1.188h-1.187l-2.812-1.187.687-.469-.937-.688-.938-.718-.719.25-.687-.469H225.469l-1.656-1.188-.72-.718z"/>
    <path d="m116.781 217.219-3.531 2.344-.719-1.188v-.469l-.719-.219-1.874 1.657-.25.219h-.938l.25.25-1.656 1.156-.469-.469.219-.219-.688-.469-.25.47-.687-.25-2.375-.47-1.406.72-.25.937-1.157-.719-.25.25.25.938-.469 1.406h-1.437l-.938-.219-.218 1.656.469.219-.938.938h-.25l-.25.468h-.469l-1.875 1.656-2.125-1.187-1.187 3.094-.688.937.469 1.625-.719 2.125-2.125-.469-.219-.218-.468.937-.469.219-.25 2.375-.719.219h-1.875l-1.187.969-.688-.47-.25.688-.469 2.844.72 1.656.218 1.406-.688 2.125-1.437.938-.688.219-.468.25-2.125 1.875v2.375l-.469.937.469.938-.25 2.375-.688 2.344v.468l.469 1.406 1.406 1.907 1.406.469 1.188.218h1.188l.937-.937 1.406-.469 1.406-.25 1.438-1.156 1.156.219H88l.719-.47.719-.218.937.219.688-.219.968.219 1.406-.469 2.594-.219v-.719L96.5 258l.469-.719.937-.219.469.22 1.656.468 1.188.469h.469l1.656.25.937-.25.719-3.531.469-.688.219-.719 1.656-.469.25 1.188 1.875 2.813 2.594-.47 1.656-.718.687-.219.969-.25h2.344l1.656-.219h.688l.968-.468.688-.719h-.469v-1.188l1.188-.937.218-.719.469-1.156.719-1.188 1.187.47.219-.22v-.5l1.188-.937-.22-.688 1.626.22.969-.938h.468l.469-1.188v-.687h.938l.468-1.438.469-1.625.938-.25.468-.219.469-1.437 1.656-.938-.937-.718-1.406-.469-1.407-1.156-.719-.969.938-.688.469-.468-1.406-1.906v-.938h-2.125l-.72-.469-.218-.687-2.844-.719-.937-.25.719-2.125.468-.938-.469-1.406.47-.25-.25-.469-.688-.937-.969-.688-.469-.718-.687-.469.469-.719V218.875l-2.126-.719-1.874-.25-.72-.469h-.25l-.687-.218z"/>
    <path d="m176.656 219.563-1.187.25-.469.687h-1.875l.219 1.438.969.468v.938l-1.438.219-.938-.22-.468-.718-1.406-.688-6.375-.5-.938-.468-1.406.969-2.594-1.188-1.438.688-.468-.688-.688.219-.719.469-1.406-.47-1.437.25-.688 1.407-.469 1.906-2.125.688-2.593.469-.25.468.969.25v.219l-.25.25h-.938l.219.25h.469l-.22 1.875-.25.219H146v.719l.25 1.187.938.688.468 2.125h-.937l-2.125.937-3.063.719v.469l-1.187.468-1.406.469-.25-1.156-.688-.25-.719-.219-1.187-.5-1.406-1.156-.938-.25-1.188-.938-1.656-1.187-.219.469 1.407 1.906-.469.469-.938.687.72.969 1.405 1.156 1.407.469.937.719-1.656.937-.469 1.438-.469.218-.937.25-.469 1.625-.469 1.438h-.937v.687l-.469 1.188h-.469l-.968.937-1.625-.219.219.688-1.188.938v.5l-.219.218-1.187-.469-.719 1.188-.469 1.156-.219.719-1.187.938V253.75h.469l-.688.719-.969.469h-.687l-1.656.218h-2.344l-.969.25.25.938v2.344l3.313 1.187h2.562l1.438-1.188 1.156-.468.5-1.625.938-.969.468-.688.469.22.938.718-.22.719-.25 1.625v.719l1.188-.25.938-.688.219.688.5.25h.687l.469-.25 1.437.718 1.875-.25.219.719v.25l4.25.938.469.468L138 262l1.156.25 1.906.469.938-.469h.719l.937-.5 1.656-.688.938-.468 1.406-.25.469.719h.25l.938-2.125 2.125-1.407.468-.469.469-.968.219-.469v-.688l.5-2.843 1.156-.219v-.719l.25-.719h1.656l-.25-.468 1.188-1.656-.25-.938 1.437-.688 1.156-1.187h.47l.468-.938.719-.468 1.187-.469.219-.969.469-.469.5-.468.937-1.156.219.218.25.719v2.344l1.875-.469 1.188.469 1.656-.469.687-.938-.219-.718 1.657-.938 2.344 1.875.718-.687 1.406-1.188h1.407l1.406-.719.719-.937.469-.688v-.968l.25-.219.687.219.938-1.156.718-.25-.219-1.188h-.968l-.688-.469h-.937v-.219L178.53 233l-2.125-.469-.219-.469-.25.22-.687-.47-.938-.468-.25-.688-.468-.25v-.937l.219-.938.718-1.406 2.594.469 1.188-1.188 1.406.469V225l-.219-.719-1.438.25-.468-.719 2.844-2.125-3.782-2.125zM271.906 235.125l-1.187.719-.219.937.219.688.25.25-.719.719h-.938l-.468-.47-1.438.938H266.47l-.469.688-.938.469-.468 1.187-.938.469-.469.469h-2.125l-.468.468-.469 1.906-1.188.938-1.656-.719-.719-.469-.687.72-.938-.47h-.25l-1.187-.718.469.937-.219.469.719.469-.25.25v.719l.25.468v.219l-.969.469v.719l.719.468.719-.937h1.875l.25.719.218.687-.719.938.5 1.187v.719l.22.469-.47 1.656-.718.219-.688-.22-.25.22.469.718.719.688.469.969-1.407.937.688.688-.219.25.938.718 1.187 1.406 2.125.938 2.094.25h.25l.25-.25h.219v-.25l.25-.688h.687v-.25l.25-.687.469-1.188-.25-.25h-.688l-.25.25-.469.938-.218.719h-.5l.25-.469-.469-.25.219-.219h.5l.219-1.656.25.469v.219l.937-.688-.25-.25.25-.469h.219l.469.469v.25l.718-1.406-.469-.5.25-.219.47.219.218-.219-.219-.25h-.25l.25-.469.469.25.219-.469-.469-.25V254h.25l.219.219h.25l-.469-.469.469-.719v.25l-.25.219.25.25.219-.469-.22-.469h.47v.688h-.25v.5l.25-.25v.25l-.25.219v.469h.25v.25h.218l-.219.468-.25.938.25-.719.22-.219.25-.937h-.25v-.25l.5-1.188.218-.219.25-.468.219-.25v-.469h.469v-.219l.718-.969.469-.468.25-.219.219-.25v-.219l.937-.719v-.25l.25.25.219-.718.25.25v-.25l-.25-.219h-.219l.219-.469.25.219v.25l.219-.25-.219-.219h.219v-.469l.25-.468.25-.25.219-.25v-.219l.25-.469v-.25l.468-.937v.719l.219-.72V243.376h.25v-.219l.219-.5.25-.219.219-.25.25-.468.468-.469.25-.219.688-.469.469-.5-1.157-1.625-1.656-2.843-.469-.219-1.906-.25h-.219zm.688 12.25-.219.938.469-.938h-.25zm-3.531 4.25v.25l.25-.25h-.25zm0 .25-.22.219v.25l.22-.469zm-1.875 3.063-.25.218h.25v-.219zm-15.313-10.844v1.406l-.5.219.5 1.187-.25.25v.219l.25.469.219-.469.719-.469.687-.469-.219-.937-.25-.469-.469-.25-.468-.687h-.219zm1.875 2.812-.469.25v.469l.688-.719h-.219zm12.969 8.25-.469.938-.469.969-.469.687v2.125l.22-1.188.25-1.156.468-.937.469-1.188v-.25z"/>
    <path d="m107.344 252.813-1.656.468-.22.719-.468.688-.719 3.53-.937.25-1.656-.25h-.47l-1.187-.468-1.656-.469-.469-.219-.937.22-.469.718-.469.938V260.125l-1.187.688-.469.25h-.938l-1.187.468-.938.219-.468 1.438-.938 1.656-.719.687.47 1.656v1.407l-.938.937-.469 1.188-.469.25v.219l.219 1.187-.219.938-.25.468.469.938.719-.219 1.406 1.188-2.594 2.343h-.469l-1.406 1.406-.25.25-.937.47.937 1.187 1.188 1.625v1.187l.469.938.937 1.187.719 1.875.25.469H88.5l-.25.25.25.469.219.25.469.469h.468l.25.687.688.469v.719l.469.468-.688.719 1.406.469h.719l.219-.25.469.719 1.656 1.187.25 1.156h1.156l.5-.687.219-.719.469 1.406 1.406.969.969 1.156.937.469.688.469.25.25h.718l.219-.25V299l.938-.688.25-.937v-.719l-.25-.25h-.22v-.219l.688-1.406.25-.25.25.25H105l.938-.469-.47-1.906-.468-.469h-.469l-.25-.718L105 291l.469.469.937.719.938.468h2.594l1.187-.937.469-1.656v-.72l.219-1.406 1.187-2.125.719-1.656-.25-.719v-.937l.469-.469-1.657-.219-1.625-.468v-1.657h.688l3.781-.468.719-.938v-2.125l-1.188-3.312.938-.469 2.125-.25.937-.219.719-.937 1.406-.938 1.188-.969.469.25v-.468l-.72-1.906.25-2.344.47-.719-1.657-.688-.25.22-1.406 1.187-.688-1.188.47-1.156-.938-2.375-3.313-1.188v-2.343l-.25-.938-.687.219-1.656.719-2.594.469-1.875-2.813-.25-1.188zM61.594 255.875l-.469.469-1.625.937-1.188 1.406v3.563l-.25 2.813-1.156.468-4.5-.687h-.218L51 267.438v1.406l-.469 1.187.469 1.156.469.47-.938.25-.25.468.25.719-.25.469-.218.937-.47.469v.937L51 274.97h1.187l1.657-.469.218-.469 1.657-.469 1.656-.718 1.875 1.187.719.688.468.719.22 1.187 2.374.219.688.719.968.468.22.25.25.219.468 3.313-.719.937.25 1.188-.469.687-.25.719-.468.937.218.719.97.469 1.624.687 1.656 1.188 1.438.719 1.625.468-.469.688-.937.969-.938 1.406v.719l-.469.468-.937 1.406-.719 1.188-.719.469-.937.469-.688.687.47.719.937-.25.687-.219h1.188l.25 1.188.687.468.969.219.469.719v1.406l.937.719h.219l.719.937.25.469.469.938-1.188.468-.469.25.469.938.469.25.937.937-.219.469.688.469-1.156.719-.25.937 1.187 1.156.938.25-.469 1.188.688.687v1.188l.718.469v.718l-.469 1.406h1.657v.72l.469.218.468.469 1.656-.469 3.75-1.156h1.438l.469-.25h.687l.719.469.469.25.469-.47 5.906.938 1.187 1.156h.469l5.188-.937 2.593-.219.219-.25-1.656-1.406-.938-2.594-.469-.719-1.187-2.812-.469-.469-.219-.469.938-2.593.219-.719v-1.188l-.219-.687.469-.719.937-.937.938-1.188.25-.469 1.406-2.125.719.72 1.656.937.219-.25h.719v-.219l.937-.25.469-.469v-.937l-.25-.938.25-.469-.25-.718h.25l.469-.719.468-.219.719.219v.5l-.25.469.25.469h.219v-.72l.25-.468.219-.25-1.626-1.406-1.656-.469-.469-.688-.937.47h-.469l-.25-.25-.25.25-.687 1.406v.218h.219l.25.25v.719l-.25.938-.938.687v.469l-.219.25h-.719l-.25-.25-.687-.469-.938-.469-.968-1.156-1.406-.969-.47-1.406-.218.719-.5.687h-1.156l-.25-1.156-1.656-1.188-.47-.718-.218.25h-.719l-1.406-.469.688-.719-.47-.469v-.718l-.687-.469-.25-.688h-.469l-.468-.468-.219-.25-.25-.469.25-.25h.469l-.25-.469-.719-1.875-.938-1.187-.468-.938v-1.187l-1.188-1.625-.937-1.188.937-.469.25-.25 1.406-1.406h.47l2.593-2.344-1.406-1.187-.719.219-.469-.938.25-.469.219-.937-.219-1.188v-.218l.469-.25.469-1.188.937-.937v-1.406l-.469-1.657.72-.687.937-1.656.469-1.438.937-.219 1.188-.469h.937l.469-.25 1.187-.687v-.469l-2.594.219-1.406.469-.969-.219-.687.219-.938-.219-.718.219-.719.469h-.469l-1.156-.22-1.438 1.157-1.406.25-1.406.469-.938.937H80l-1.188-.219-1.406-.468L76 260.813l-.469-1.407v-.469h-.719l-2.343-1.406-1.188 1.156-.25 1.188-1.406 1.875-.719 1.656-2.594-.219-.468-1.187-.688-1.188-.469-.687-.968-1.656-1.157-1.406-.968-1.188zM217.906 260.594l-.687.469-.719.687.219 1.438-.688.468v.688l-.719.25-.937.469-.25.25-.469.218-1.156-.687-2.375-.5-.938.719.25.718-.468 1.156-.719.97-.469.937v.219l-1.656 1.906-.469.687-.25.719-.219.938-2.843 1.187-.469.469.469.937-.219 1.406.469.47.687 1.437-.219.219-.468-.688h-.719v1.406l.469 1.188.25-.25h.687l-.219.25-.718.219h1.187v-.47l2.125-.218.719-.5.469-.219.469-.25.687-.469 1.188-.218 1.187-.25.688-.219h.968l.219.219-.219-.688.938-.25.219.938h.25l-.25-.469.25-.219.468-.5h1.188l.469-.219.687.22.25-.22h.219l.25-.25h.469l.718-.468.469.25.469-.25v.25l.219-.25v-.219l.5-.25.218-.219.469-.25 1.188-.469h.468l.469-.25.469-.218.25.219v.25h.219l.25-.25.218.25v-.25l.25-.22 1.188.47.219-.25.468.25.25-.25h.469l.719.25.469-.25.218-.47h.469v.25l.25-.25-.25-.218h.25v-.25l1.656-.688.938-.25.687-.218.469-.5h.25l.469-.219.469-.25 2.125-.688-.22.22-.25.25h.25l.688-.47.719-.25.938-.218-.72-1.438v-.687l.47-.469-1.875-1.438-.22-.468-.968.25-.938 1.187-.468-.25-.469.719-1.656-.469h-.219v.469h-1.656l-.25-.25.469-2.125-2.594-.938-.469-1.656.25-1.156-.25-.25-.938.469-1.406-.719-.469.25-.937-.469-1.656-.25h-.938l-.469-.219-1.187-.468h-.719zm15.094 12-.25.5-.219.219h.219l.25-.72zm-8.969 2.844-.219.25h.22v-.25zm-11.062 3.53-.25.25-.469.47.469-.25.25-.47z"/>
    <path d="m49.594 270.969-.25.937v.688l-.469.25h-.469l-.937-.25-.938-.469h-.25l-.218.719-.25.25-.47.219-.937-.47v.25l-.468.47-.25 1.406-1.188 3.781-.219.938-.25.687-.218 2.125-.25.469-.47-.219-.687.219v.25h-.5l-2.093 1.406-2.126-.219v.219l.22.469v.469l-.47.468v.719l-.218.469-.5.469h-.688l-.468-.22-1.907-.937h-.937l.468.219.25.25v.219l-.25.25-1.406.219-.468.25v.468l.937.938-.469 1.656-.718.219v3.094l.25.468h.468l.938-.25.718.25.22.469v.219l-.47.25h-.218v.219l.468.25v.687l-.468.719.468.937.688.469v.719l-.219.25-.468.219-.47.468v.719h.47l.468-.469.469-.25h.25l.219.25v.219l-.219.469-.25.469v.25l.25.25.938.218h.218l.25-.219v-.968h.219l.25.25.219.719.718.687 1.188.938h.469l.468.25.72.468v.25l-.47.219-.5-.219h-.937l-.469.219-.218.25.218.688.469.25h.719l.218.468.25.469-.468.25-.25.469v.469l.25.218.218.469.72.719.25.937v1.407h.687l.468.25v.218l-.687.969h-.25v1.156l-.219.469-.25.5-.468.219-.25.25-.47.687.25 1.188-.937 1.187h-.468l-.97.938v1.656h-.468l-.219.219v.25l.469.687-.469.25v1.188l-.468.469v.687l-.72.25-.218.219.219.25.718.469.47.25.468.687v.719l-.469 1.187.219.469v.688l.25.468.719 2.594.937 1.188.688.718.25.469-.25.219h-.219l-.25.25 2.375.469 2.344-3.782 2.125-.687.718-1.438 1.157-1.156 2.375-2.844v-.687l.937-.969-.718-1.156.25-.469-.25-1.188.25-.468v-.938l.218-.25v-1.875l.719-.937v-.969l.719-.219.687.219.969-1.156v-.25l.688-.219h.468l1.438-.719h.937l.938-.25h.937l1.188-.469L59 312.438l1.438.25.687-.25 1.188.47 1.187-1.157.688-.719.718-.469.719-.718 1.406-.219 1.875-1.188 1.656-.687.72-.719.468-.25 1.188-.469-.47-.937-.25-.469-.718-.937h-.219l-.937-.719v-1.406l-.469-.719-.969-.219-.687-.469-.25-1.187H66.78l-.687.219-.938.25-.469-.719.688-.688.938-.468.718-.469.719-1.188.938-1.406.468-.469v-.718l.938-1.406.937-.97.469-.687-1.625-.469-1.438-.718-1.656-1.188-1.625-.687-.969-.469-.218-.719.468-.937.25-.719.47-.688-.25-1.187.718-.938-.469-3.312-.25-.219-.219-.25-.968-.469-.688-.718-2.375-.219-.218-1.188-.47-.718-.718-.688-1.875-1.187-1.656.719-1.657.468-.218.469-1.657.469H51l-1.406.937v-.937l.468-.469.22-.938.25-.468-.25-.719.25-.469.937-.25-.469-.469-1.406-.218zM167.938 271.188l-.938 1.656.219.719-.469.468-.469-.25-.219.25-.718-.25.469.938.25.469h.687l-.219-.47.469.25.469.938-.25.719-.688-.25-.25.469-.219.719h-.25l-.468-.938-.938.219-1.437-1.406-.469-.47-.938-.937-.687-.25-.25-.219v-.25l-.25.47-1.156.25-.469.468-.469-.469-.969.469-.218.469-.719 1.187-1.656-.719-.469.72 1.188 1.406.718 1.406v.719l-1.656-.72h-1.406l-.25-1.656.25-.218v-.25l-.719-.219-.25.688-.688-.22-.468-.468-1.188-1.188-.25-.25-.219-.218-.25.219-.468.5-.938-1.188-.937 1.188-.719-.25v.25l.719.468-.25 1.156.25.25-.469 1.875-.469.72v.218l-1.656 2.125h-.469l-.25.719-1.156.937.469.469 1.625 2.594.719.25.937.687.469 1.438 1.437.687-.25.469-1.656-.219-.469-.719.719-.218v-.25l-1.406-.219-.5.938.5.687.219-.469.468.469.25 1.188-.719.718.47.469.468.688h-1.406l-1.406-2.094-.938-.25-1.438-.938-1.156-.25-.25.25-.25.938.5.25.219.937v.688l.25.469v.718l-.469.25-1.437-.469v-.25h.25l-.719-.718-.688-.469-.968.938v1.656l.25.937.469.719.468.719 1.406 1.156.25.469.72-.219H141.062l.687.219.25.5.469.219v.468h.719l.468.25v.469h.219v.219l.25.469h-.25l.25.25.719-.25v.25h.469l.687-.938h.25l.219-.469-.219-.25v-.469l.688-1.406.718-1.656.938-.938.937-.718.25.469.469.468.25-.469-.25-.468 1.188-.938h.218l-.219.719.22-.25v.469h.25l.218-.219-.219-.719h.219l.25.719.938-.469-.22-.25v-.219l.47.22h.218l-.469-.22.25-.25.47-.25.468.25-.25.47v-.22l-.219.22.219.25-1.656.687-.219.719-.25-.25-.469.937.25.25-.719.719v.219l.72-.688.687-1.188 1.656-.937.25-.469.219-.25.25-.469h.219v-.25l.25-.218.25-.25.468-.219.469.219v.25l.219-.25h.469v-.219l.25-.25v-.219l.937-.469 1.406-.718.969-.25 1.875-.219.938.219h1.406l.969.5.218-.5.719.25 1.156-.469 1.656-.469.938-.25.25.25.469.219h.719l.218-.219h.469l.25-.469h.219l-.219-.25 4.469-2.593 2.375-1.406 3.062-.938 1.406-.469-.25-.25-.937-1.406-.938-2.594-.25-1.406-2.562.688-1.438.25h-.687l-1.188-1.407H175l-1.188-.25-.687.938-.719.25-.469-2.594h.938l.719-.719.219-1.875.718-.469-1.187.22h-.938l-.937-.47-2.125-.468-.219-.469v-.469l-1.188-.719zm-12.75 22.875-.22.468.22-.219v-.25z"/>
    <path d="m71.281 307.031-.719.719-1.656.688-1.875 1.187-1.406.219-.719.719-.719.468-.687.719-1.188 1.156-1.187-.469-.688.25-1.437-.25-1.156 2.125-1.188.47h-.937l-.938.25h-.937l-1.438.718h-.468l-.688.219v.25l-.969 1.156-.687-.219-.719.219v.969l-.719.937v1.875l-.218.25v.938l-.25.469.25 1.187-.25.469.718 1.156-.937.969v.687l-2.375 2.844-1.157 1.156-.718 1.438-2.125.687-2.344 3.781-2.375-.468-.688.469-.968 2.343-1.157.25-.718.938-1.188.719v1.187l2.375-.25 1.657.25.687.219.469 1.187-.688.219.219.469.25.5.219.219.25-.47.937-.25v1.657l.25.469.219.719h.938l1.656.937.937-.938h.719l.469-1.656 1.406.719 4.719-.469v.219l3.531 3.063 2.375.468 1.188.25H59.5l.938.219 1.656-.219h1.875l1.875-.719.469-.468.968.25.469-.469.688.469 1.187.219 1.188-1.157.468.219.938 2.844.469 2.594 2.343 1.406 1.656.469 3.532-1.407 2.125-.469 1.906-.468.688.687.968.469h.688l6.594.938.968.5 2.813 1.875h1.875l2.844-1.657 2.124-1.187 2.813-.688h2.594l-.469-1.187-.469-1.406-.219.218v.469h-.718l-.469-.688h-.469l-.25.22-.469.25-.687.218h-1.188l-.468-.219-.719-.937-.938-.969-3.062-4.219-1.188-2.125-.468-.469-.719-.468-.469-.469-.937-.25H92.03l-.469.25-.5.469.72.469H92.968l.469.218.718.25.688.219.937.469.719.25 1.188.719-.47.468h-.25l-.468.469-.469.219-.25.25-.687.219-1.656-.22-1.657-.718-.719-.469-1.156-1.406-.25-.25-.687-.688-.719-.937-.719-1.656.25-.469.469-.469.25-.25.219-.25.469-.219.718-.25h.219l.25-.468.469-.219.719-.25.218-.469.25-.219h.469v.22l.219-.22.25-.5-.25-.218v-.25l.469-1.156v-.25h.25l.218-.22v-.5l.5-.468h1.157l.25-.469v-.219l.468-.468.219-.469.25-.25 1.188-.219.687-.5v-.219h.25l.219-.25.25-.218.469-.719-.22-.219h.22v-.25l.25-.219.218-.25.25-.468.219-.25v.469l.25-.22V328.25l.219-.25v-.219l.25-.25h.219l.25-.219.468-.25.25-.718.469-.219.219-.469v-.25h.25V324.72l.219-.25.25-.219h.218v-.5h.25v-.219h.25l.219-.719.469-.218.719-.719.218-.219.25-.25v-.469l.469-.468-1.188-.25-1.156-.469-2.125-.219-2.594.219-5.187.938h-.469l-1.187-1.157-5.906-.937-.47.469-.468-.25-.719-.47h-.687l-.469.25h-1.438l-3.75 1.157-1.656.469-.469-.469-.468-.219v-.719h-1.657l.47-1.406v-.719l-.72-.468v-1.188l-.687-.687.469-1.188-.938-.25-1.187-1.156.25-.938 1.156-.718-.688-.469.22-.469-.938-.937-.469-.25-.469-.938zm29.219 21.906-.219.25v.25l.219-.5zm-11.313 10.625-.218.47.219-.25v-.22z"/>
    <path d="m34.031 342.625-2.375.25v.469l-.468 1.406-.47.219h-.468l-1.406-.219-1.407 1.656-.25-.25h-.218l-.25.469-.469.719H26l-.219-.25-.25-.469-.218.25-.72-.25-.218 1.188v.937l-.5-.219-.469-.719-.468-.468h-.22v.219l.47.718v.469l.468 1.406 1.875.969.719-.719.469 1.188 1.187-.25.219-.469.719-.25.468-.219H30.5l-.25 1.406 1.188 3.532.687.25.969-.469.937-.469h.469l.719.469.468.219.688 1.437 1.438.688.218.719-.937 1.406-.25.469-.688.25h-.25l-.687 1.875v1.656l-.25.219.25.968v.219l.468.469h.22l.25.719.218.718 1.188.688h.25l.468-.219h.219l.25.469 1.406.937 2.125.938 1.875.719 3.782.218h1.187l.469.25 1.156.469.5.688.219.718 1.656 1.188 1.188 1.187h1.406v.219l-.25.25-.219.219-.25.469-.219.937.219 1.188v1.656l1.188.937 1.406.469 2.125 1.188 1.656.718 1.188.469 1.156.219.468.25.25-.938.72-1.656v-.469l1.156-1.656.25-.469.718-1.906.938-.688h.219l.468.47-.469-.72 1.657-1.656 2.594-3.062.937-1.156.719-.25.219-.22h-.47v-.25l.47-.218h.25l-.25.219h.25l.218.25h.719v-.25h-.219l-.25-.219v.219l-.719-.469.25-.25.22.25v-.25h.25l.25-.219h.218l1.406.219 3.781-.219.72-.25.687-.219 1.187-.25.938-.687 1.437-.469 3.063-.25h2.094l1.187.25v.688l-.219.469-1.437 2.375-2.344 3.28-.25.25-.688.47h-1.656l-.469-.25-.25.25-1.406-.72-.937.25h-.719l-.469.688-.687.25-1.906.469h-.47l-.937-.219-.719-.719V376.563H76l-.25-.22-.219-.25h-.25v.25l-.25.22-.687-.22-.25-.25.25 1.407.469.719.468.937.938.719.937.219 1.188.25.937-.25 1.188-.219 2.125-.469.937-.469 1.875-.937.969-.719.688-.937 1.187-1.656 4.719-7.063.687-.719.969-.937 2.125-1.188 1.625-.719 4.719-2.093 1.656-.969 1.188-.938 1.156-.937.969-1.656.468-1.406.469-.938.219-.469h-2.594l-2.813.688-2.124 1.187-2.844 1.656h-1.875l-2.813-1.875-.969-.5-6.593-.937h-.688l-.969-.469-.687-.687-1.906.469-2.125.468-3.531 1.406-1.657-.468-2.344-1.406-.468-2.594-.938-2.844-.469-.219-1.187 1.156-1.188-.218-.687-.469-.469.469-.969-.25-.468.469-1.875.718h-1.875l-1.657.219-.937-.219h-3.063l-1.187-.25-2.375-.469-3.531-3.062v-.219l-4.719.469-1.406-.719-.469 1.656h-.719l-.937.938-1.657-.938H38.5l-.219-.718-.25-.469v-1.656l-.937.25-.25.469-.219-.22-.25-.5-.219-.468.688-.219-.469-1.187-.688-.219-1.656-.25zm41.719 26.406v.719H76l-.25-.719zm-.719 1.188h-.219v.219l.22-.22z"/>
  </g>
</svg>
