<svg fill="none" xmlns="http://www.w3.org/2000/svg" viewBox="0 0 634 372">
  <path fill-rule="evenodd" clip-rule="evenodd" d="M188 211a2 2 0 1 0-4 0v44.5h-32.5a2 2 0 1 0 0 4H184v69h-77.5v-168h89.844a27.053 27.053 0 0 0 6.656 3.464 26.852 26.852 0 0 0 7 1.463V182.5a2 2 0 1 0 4 0v-17.073a26.852 26.852 0 0 0 13.656-4.927H305V171a2 2 0 0 0 4 0v-10.5h13.5v168H244v-69h55.5a2 2 0 1 0 0-4H244v-64a2 2 0 1 0-4 0v64h-52V211Zm0 48.5v69h52v-69h-52Zm0 73v2a2 2 0 1 1-4 0v-2h-77.5v29a2 2 0 1 1-4 0v-29H42a2 2 0 1 1 0-4h60.5v-168H59.308l-47.324 26.741a2 2 0 1 1-1.968-3.482L51.178 160.5H21a2 2 0 1 1 0-4h37.256l44.244-25V75H98a2 2 0 1 1 0-4h4.5V37.5a2 2 0 1 1 4 0V71h94.699l-55.617-28.723a2 2 0 0 1 1.836-3.554l62.316 32.183L279.5 31.483V21.5a2 2 0 1 1 4 0v7.723l7.016-3.964a2 2 0 1 1 1.968 3.482l-8.984 5.077V71H305V45a2 2 0 1 1 4 0v26h13.5V11a2 2 0 1 1 4 0v60h17a2 2 0 1 1 0 4h-17v56.208l48.973 25.292H436a2 2 0 1 1 0 4h-52.782l22.7 11.723a2 2 0 0 1-1.836 3.554L374.501 160.5H326.5v168H394a2 2 0 1 1 0 4h-67.5v1.5a2 2 0 1 1-4 0v-1.5H188Zm178.756-176L326.5 135.71v20.79h40.256ZM322.5 133.645l-13.5-6.972V156.5h13.5v-22.855Zm-17.5-9.038-21.5-11.104V133.5a2 2 0 1 1-4 0v-22.062l-69.68-35.986-103.32 58.382V156.5h85.375a27.126 27.126 0 0 1-4.54-7 26.71 26.71 0 0 1-1.419-4 26.899 26.899 0 0 1-.751-4H180a2 2 0 1 1 0-4h5.018a27.069 27.069 0 0 1 1.187-7 26.811 26.811 0 0 1 1.602-4A27.12 27.12 0 0 1 199 114.83a26.852 26.852 0 0 1 11-3.257V101a2 2 0 0 1 4 0v10.573a26.852 26.852 0 0 1 11 3.257 27.12 27.12 0 0 1 11.193 11.67 26.811 26.811 0 0 1 2.789 11H249a1.997 1.997 0 0 1 2 2 2 2 0 0 1-2 2h-10.165a26.899 26.899 0 0 1-1.747 7 26.89 26.89 0 0 1-1.997 4 27.126 27.126 0 0 1-2.966 4H305v-31.893ZM230.25 152.5a22.968 22.968 0 0 0 3.665-7 22.86 22.86 0 0 0 .891-4H214v15h12.319a23.108 23.108 0 0 0 3.931-4Zm-20.25-11h-20.806a22.86 22.86 0 0 0 4.556 11 23.108 23.108 0 0 0 3.931 4H210v-15Zm-20.979-4a22.924 22.924 0 0 1 1.408-7 22.97 22.97 0 0 1 1.946-4 23.116 23.116 0 0 1 6.625-6.976 22.833 22.833 0 0 1 11-3.938V137.5h-20.979Zm24.979 0h20.979a22.924 22.924 0 0 0-1.408-7 22.97 22.97 0 0 0-1.946-4 23.116 23.116 0 0 0-6.625-6.976 22.833 22.833 0 0 0-11-3.938V137.5Zm-111.5-1.406L66.387 156.5H102.5v-20.406ZM202.488 75H106.5V129.239L202.488 75Zm77.012 31.936V75h-61.838l61.838 31.936Zm0-35.936V36.078L217.698 71H279.5Zm4 38.001 21.5 11.104V75h-21.5v34.001Zm25.5 13.17 13.5 6.972V75H309v47.171ZM205.271 160.5c1.516.463 3.098.774 4.729.914v-.914h-4.729Zm8.729.914a22.876 22.876 0 0 0 4.729-.914H214v.914Z" fill="#000" stroke="#fff" stroke-width="17"/>
  <path d="M81.5 158 216 78.5 104.5 158l129-76.5-124 85.5 131-76-36 25.5 39-22-15.5 22 28-16.5-22.5 23.5 34.5-15-27.5 26 63-34.5-63 48 63-36" stroke="#E4DA2C" stroke-width="6" stroke-linecap="round" stroke-linejoin="round"/>
  <path d="M284.5 72 278 88l23.5-12-17 21.5 21-13.5M202 120l-93.5 58 77.5-43.5-74 57.5 74-43-74 56 76.5-46-83 61 92-52.5-92 65.5 122-68-122 83 206-121-206 135.5C175 221 315.4 137.3 321 134.5 328 131 102.5 275 105.5 276c2.4.8 148-87.667 220.5-132L105.5 291 321 156.5 286.5 183l34.5-18-212.5 135L321 178l-108.5 77L321 192l-86.5 63 86.5-50-79 61 76.5-46-76.5 59 74-42.5-76 56 83-46.5-83 62 81-45.5-74 54.5 71.5-41-60 49 60-34-39.5 37.5 42-23-19 23 19-11.5" stroke="#E4DA2C" stroke-width="6" stroke-linecap="round" stroke-linejoin="round"/>
  <path d="M179.5 263.5 106 315l79-43-76.5 56 71-40-42.5 40 45.5-27.5L158 328l29.5-16-8 16M79.5 158l4-15.5L61 158M327.5 147l13.5-7.5-16.5 15.5 22-13 4.5 13 7.5-8 15.5 8" stroke="#E4DA2C" stroke-width="6" stroke-linecap="round" stroke-linejoin="round"/>
  <path fill-rule="evenodd" clip-rule="evenodd" d="M186 209a2 2 0 0 1 2 2v123.5a2 2 0 1 1-4 0V211a2 2 0 0 1 2-2Z" fill="#333"/>
  <path fill-rule="evenodd" clip-rule="evenodd" d="M149.5 257.5a2 2 0 0 1 2-2h148a2 2 0 1 1 0 4h-148a2 2 0 0 1-2-2Z" fill="#333"/>
  <path fill-rule="evenodd" clip-rule="evenodd" d="M242 189.5a2 2 0 0 1 2 2v139a2 2 0 1 1-4 0v-139a2 2 0 0 1 2-2Z" fill="#333"/>
  <path fill-rule="evenodd" clip-rule="evenodd" d="M40 330.5a2 2 0 0 1 2-2h352a2 2 0 1 1 0 4H42a2 2 0 0 1-2-2Z" fill="#333"/>
  <path fill-rule="evenodd" clip-rule="evenodd" d="M104.5 35.5a2 2 0 0 1 2 2v324a2 2 0 1 1-4 0v-324a2 2 0 0 1 2-2ZM324.5 9a2 2 0 0 1 2 2v323a2 2 0 1 1-4 0V11a2 2 0 0 1 2-2Z" fill="#333"/>
  <path fill-rule="evenodd" clip-rule="evenodd" d="M96 73a2 2 0 0 1 2-2h245.5a2 2 0 1 1 0 4H98a2 2 0 0 1-2-2Z" fill="#333"/>
  <path fill-rule="evenodd" clip-rule="evenodd" d="M293.241 26.016a1.999 1.999 0 0 1-.757 2.725l-280.5 158.5a2 2 0 1 1-1.968-3.482l280.5-158.5a2 2 0 0 1 2.725.757Z" fill="#333"/>
  <path fill-rule="evenodd" clip-rule="evenodd" d="M144.723 39.582a2 2 0 0 1 2.695-.859l258.5 133.5a2 2 0 0 1-1.836 3.554l-258.5-133.5a2 2 0 0 1-.859-2.695Z" fill="#333"/>
  <path fill-rule="evenodd" clip-rule="evenodd" d="M281.5 19.5a2 2 0 0 1 2 2v112a2 2 0 1 1-4 0v-112a2 2 0 0 1 2-2ZM307 43a2 2 0 0 1 2 2v126a2 2 0 1 1-4 0V45a2 2 0 0 1 2-2Z" fill="#333"/>
  <path fill-rule="evenodd" clip-rule="evenodd" d="M19 158.5a2 2 0 0 1 2-2h415a2 2 0 1 1 0 4H21a2 2 0 0 1-2-2Z" fill="#333"/>
  <path fill-rule="evenodd" clip-rule="evenodd" d="M212 99a2 2 0 0 1 2 2v81.5a2 2 0 1 1-4 0V101a2 2 0 0 1 2-2Z" fill="#333"/>
  <path fill-rule="evenodd" clip-rule="evenodd" d="M178 139.5a2 2 0 0 1 2-2h69a2 2 0 1 1 0 4h-69a2 2 0 0 1-2-2Z" fill="#333"/>
  <path fill-rule="evenodd" clip-rule="evenodd" d="M212 161.5c12.703 0 23-10.297 23-23s-10.297-23-23-23-23 10.297-23 23 10.297 23 23 23Zm0 4c14.912 0 27-12.088 27-27s-12.088-27-27-27-27 12.088-27 27 12.088 27 27 27Z" fill="#333"/>
  <path d="M362.533 163.811c10.788 0 19.534 8.745 19.534 19.533v98.668h52.088c6.383 0 12.05 3.061 15.614 7.795l15.882-91.624c5.565-32.106 50.808-34.361 59.538-2.968l15.69 56.419 12.54-55.515c7.271-32.186 53.337-31.587 59.768.778l20.435 102.845c2.102 10.581-4.771 20.863-15.352 22.966-10.581 2.102-20.863-4.771-22.966-15.352l-12.617-63.501-11.152 49.367c-6.996 30.969-50.73 32.042-59.236 1.453l-14.615-52.554-11.226 64.764c-1.842 10.629-11.953 17.753-22.582 15.91-6.111-1.059-11.063-4.851-13.819-9.903-3.543 4.956-9.345 8.187-15.902 8.187H366.54c-13.001 0-23.54-10.539-23.54-23.54V183.344c0-10.788 8.745-19.533 19.533-19.533Z" fill="#fff"/>
  <path fill-rule="evenodd" clip-rule="evenodd" d="M362.533 171.323c6.639 0 12.021 5.382 12.021 12.021v106.181h59.601c6.639 0 12.021 5.382 12.021 12.021 0 6.638-5.382 12.02-12.021 12.02H366.54c-8.852 0-16.027-7.176-16.027-16.027V183.344c0-6.639 5.382-12.021 12.02-12.021Zm220.625 36.352 19.515 98.217c1.294 6.511 7.621 10.741 14.133 9.447 6.511-1.294 10.741-7.621 9.447-14.133l-20.435-102.845c-4.85-24.406-39.588-24.858-45.071-.587l-19.114 84.615-23.682-85.161c-6.584-23.674-40.701-21.973-44.898 2.238l-17.685 102.03c-1.134 6.541 3.25 12.763 9.791 13.897 6.541 1.134 12.763-3.25 13.897-9.791l16.925-97.646 23.556 84.706c6.414 23.067 39.394 22.258 44.67-1.096l18.951-83.891Z" fill="#333"/>
</svg>
